<?xml version="1.0" standalone="no"?>
<!DOCTYPE svg PUBLIC "-//W3C//DTD SVG 20010904//EN"
 "http://www.w3.org/TR/2001/REC-SVG-20010904/DTD/svg10.dtd">
<svg version="1.0" xmlns="http://www.w3.org/2000/svg"
 width="854.000000pt" height="1280.000000pt" viewBox="0 0 854.000000 1280.000000"
 preserveAspectRatio="xMidYMid meet">

<g transform="translate(0.000000,1280.000000) scale(0.100000,-0.100000)"
fill="#000000" stroke="none">
<path d="M0 11375 l0 -1425 103 -1 c56 0 120 -2 142 -4 22 -1 119 -6 215 -9
96 -4 202 -9 235 -11 33 -3 101 -7 150 -10 50 -3 115 -10 145 -15 30 -5 81
-12 114 -15 32 -3 67 -10 77 -16 19 -10 21 -29 5 -41 -6 -4 -5 -13 3 -22 7 -8
10 -19 7 -24 -3 -5 -1 -33 3 -63 5 -32 5 -61 0 -71 -6 -12 -6 -25 1 -38 7 -13
7 -20 1 -20 -16 0 -8 -103 9 -117 8 -7 10 -13 5 -13 -6 0 -11 -10 -12 -22 0
-13 1 -17 4 -10 9 22 18 12 19 -20 0 -18 3 -64 6 -103 3 -38 4 -62 1 -52 -2 9
-9 17 -15 17 -6 0 -8 -9 -5 -20 3 -11 1 -23 -4 -26 -5 -3 -5 -12 1 -23 6 -12
5 -22 -1 -28 -8 -8 -5 -19 8 -39 10 -16 13 -25 6 -21 -6 4 -14 3 -18 -3 -3 -5
-2 -10 3 -10 12 0 10 -60 -3 -60 -5 0 -5 -4 1 -8 15 -9 21 -43 10 -60 -9 -14
12 -140 27 -159 5 -7 6 -21 2 -33 -3 -11 -2 -20 3 -20 6 0 9 -11 8 -24 0 -13
-4 -22 -8 -19 -5 2 -8 -10 -8 -26 0 -40 -1 -43 -19 -61 -13 -13 -13 -15 3 -18
12 -3 15 -9 10 -25 -4 -12 -7 -32 -6 -44 1 -13 -3 -23 -8 -23 -6 0 -8 -11 -4
-24 3 -13 1 -27 -4 -30 -6 -3 -7 -18 -3 -34 15 -54 -37 -72 -264 -87 -49 -3
-128 -10 -175 -16 -47 -6 -139 -11 -205 -11 -92 -1 -131 -5 -168 -19 -26 -11
-67 -20 -90 -20 -23 -1 -32 -4 -19 -6 12 -2 22 -9 22 -14 0 -5 11 -14 25 -19
22 -9 25 -15 25 -64 0 -40 7 -67 24 -98 56 -100 58 -130 72 -1128 4 -245 8
-452 10 -460 1 -8 3 -146 3 -306 l1 -291 118 -8 c184 -11 324 -9 333 7 10 18
14 101 6 115 -4 6 -20 13 -37 16 -26 6 -30 11 -30 41 0 25 9 46 32 72 l33 38
-3 215 c-1 119 -4 239 -7 266 -2 28 -7 141 -11 253 -6 185 -8 202 -25 202 -54
0 -65 73 -18 121 26 27 30 36 25 68 -3 20 -7 93 -8 162 l-3 126 40 79 c45 89
139 195 216 245 27 17 91 49 142 71 51 22 95 45 99 51 4 7 8 41 8 77 0 36 5
81 10 100 9 32 30 187 33 250 2 19 -5 26 -28 33 -73 23 -95 49 -74 86 5 9 24
51 43 93 19 43 48 97 64 120 16 24 32 56 36 73 4 16 18 52 30 80 13 27 29 67
35 87 13 41 47 88 62 88 20 0 38 27 27 38 -7 7 -7 19 0 41 8 23 7 32 -4 42 -8
6 -14 19 -14 28 0 9 -7 3 -16 -14 -12 -24 -13 -34 -3 -52 14 -26 2 -47 -31
-56 -20 -5 -48 26 -42 46 2 5 -9 37 -23 72 -44 110 -27 134 50 70 39 -32 45
-33 74 -22 17 6 34 19 37 29 8 28 -5 58 -26 58 -23 0 -50 36 -50 66 0 12 -11
46 -24 75 -17 39 -26 80 -30 147 -3 51 -8 97 -10 101 -3 4 -6 36 -7 72 -1 35
-10 120 -20 189 -58 388 -62 445 -64 775 -1 176 -5 388 -9 470 -19 397 -15
564 20 850 2 22 7 60 10 84 6 54 13 68 26 50 8 -12 10 -12 15 0 3 7 23 -22 47
-69 22 -45 45 -90 51 -101 11 -21 35 -34 35 -18 0 6 11 1 24 -12 17 -17 22
-29 17 -44 -14 -40 -1 -65 34 -65 27 0 34 13 28 55 -3 21 0 35 11 44 9 7 16
19 16 27 0 7 8 19 18 26 9 7 25 25 35 41 l17 27 -35 0 c-26 0 -39 6 -50 24
-23 34 -7 59 54 88 l49 23 -12 35 c-6 19 -10 45 -8 58 5 35 43 25 64 -18 15
-30 16 -35 3 -43 -8 -4 -15 -13 -15 -18 0 -13 39 -2 61 17 21 19 75 29 83 15
4 -6 12 -9 17 -6 5 4 12 -1 15 -9 9 -23 31 -19 61 10 l26 26 -24 14 c-13 7
-30 13 -37 14 -14 0 -25 8 -78 57 -21 19 -50 35 -72 38 -61 10 -100 35 -119
76 -10 21 -25 41 -34 44 -9 3 -24 14 -34 25 -10 11 -27 20 -38 20 -17 0 -18
-5 -13 -34 6 -29 3 -37 -20 -55 -15 -12 -36 -21 -48 -21 -27 0 -82 33 -95 58
-6 11 -42 41 -81 66 -55 36 -72 54 -77 76 l-6 30 -673 0 -674 0 0 -1425z
m1690 665 c0 -5 -5 -10 -11 -10 -5 0 -7 5 -4 10 3 6 8 10 11 10 2 0 4 -4 4
-10z"/>
<path d="M2056 12723 c1 -43 7 -91 13 -106 6 -16 11 -47 11 -71 0 -54 13 -67
52 -54 27 10 28 12 13 28 -12 14 -13 23 -5 45 10 25 8 32 -15 52 -29 27 -31
43 -10 83 20 39 48 52 89 45 37 -7 76 8 76 29 0 17 -52 26 -150 26 l-75 0 1
-77z"/>
<path d="M2791 12783 l-24 -16 23 -19 c41 -33 70 -19 70 33 0 24 -36 26 -69 2z"/>
<path d="M3065 12790 c3 -5 24 -14 45 -20 33 -9 40 -15 40 -35 0 -13 9 -42 21
-65 17 -31 30 -42 62 -52 23 -7 57 -27 76 -45 19 -18 38 -33 43 -33 4 0 8 -6
8 -14 0 -18 32 -28 95 -30 107 -5 156 -17 168 -43 15 -33 68 -55 82 -36 6 8
41 18 79 23 76 9 84 13 67 34 -19 23 -61 29 -87 11 -13 -8 -34 -15 -46 -15
-32 1 -73 34 -65 53 4 10 -2 22 -14 31 -34 23 -20 49 38 70 37 13 72 38 118
82 83 81 84 94 6 94 -56 0 -59 -1 -67 -27 -4 -16 -8 -32 -8 -38 -3 -32 -85 -2
-98 36 -9 28 -13 29 -69 29 -56 0 -59 -1 -59 -25 0 -65 -58 -133 -100 -120
-11 4 -20 10 -20 13 0 12 32 56 47 65 7 4 20 21 28 37 l16 30 -206 0 c-131 0
-204 -4 -200 -10z m269 -28 c14 -16 14 -24 4 -53 -6 -19 -16 -37 -22 -41 -32
-22 -86 7 -86 46 0 57 67 88 104 48z m130 -231 c3 -5 0 -11 -8 -14 -15 -6 -26
1 -26 15 0 11 27 10 34 -1z"/>
<path d="M3954 12793 c17 -3 30 -12 33 -24 5 -19 33 -27 33 -10 0 5 3 16 6 25
5 13 -2 16 -47 15 -32 -1 -42 -4 -25 -6z"/>
<path d="M4156 12792 c6 -4 11 -29 11 -55 0 -54 6 -63 48 -73 l30 -7 -32 33
c-18 18 -33 38 -33 45 0 24 12 45 26 45 8 0 14 5 14 10 0 6 -17 10 -37 10 -21
0 -33 -4 -27 -8z"/>
<path d="M6776 12791 c-4 -6 3 -15 14 -21 23 -12 27 2 6 19 -9 8 -16 8 -20 2z"/>
<path d="M4884 12765 c-3 -8 -14 -17 -25 -20 -29 -9 -23 -21 19 -38 20 -9 50
-28 65 -42 33 -32 50 -25 20 8 -27 30 -43 61 -43 86 0 24 -28 29 -36 6z"/>
<path d="M7642 12755 c0 -16 2 -22 5 -12 2 9 2 23 0 30 -3 6 -5 -1 -5 -18z"/>
<path d="M7719 12730 c-1 -8 -1 -19 0 -23 2 -14 -27 -19 -48 -7 -18 9 -22 8
-28 -7 -3 -10 -13 -26 -21 -35 -18 -22 -19 -112 -1 -134 8 -10 12 -38 11 -75
-2 -35 2 -59 8 -59 5 0 10 6 10 14 0 8 9 24 19 37 18 22 20 22 26 7 13 -32 35
-21 35 16 0 19 5 38 11 41 5 4 9 26 7 48 -3 41 -3 42 28 40 24 -2 31 1 30 15
-4 38 -84 151 -87 122z m-9 -154 c0 -8 -4 -17 -8 -20 -13 -8 -35 11 -28 23 10
16 36 14 36 -3z"/>
<path d="M4323 12660 c-22 -27 -21 -40 2 -40 11 0 30 59 23 65 -2 1 -13 -10
-25 -25z"/>
<path d="M6715 12580 c-26 -27 -27 -34 -22 -86 3 -31 11 -62 16 -67 6 -6 11
-19 11 -29 0 -23 12 -23 33 0 20 22 22 64 5 92 -15 24 -6 34 35 36 18 1 40 2
50 3 20 1 23 32 5 60 -9 15 -15 17 -28 8 -12 -7 -26 -7 -48 1 -27 9 -33 7 -57
-18z"/>
<path d="M2840 12469 c0 -11 14 -34 30 -51 28 -28 32 -29 52 -16 12 8 23 19
24 24 4 13 -46 50 -78 58 -24 5 -28 3 -28 -15z"/>
<path d="M2632 12258 c3 -7 13 -15 22 -16 12 -3 17 1 14 10 -3 7 -13 15 -22
16 -12 3 -17 -1 -14 -10z"/>
<path d="M3803 12213 c3 -10 8 -31 11 -46 8 -35 26 -26 26 13 0 19 -7 33 -21
41 -18 9 -20 8 -16 -8z"/>
<path d="M2280 12151 c0 -5 9 -7 20 -4 11 3 20 7 20 9 0 2 -9 4 -20 4 -11 0
-20 -4 -20 -9z"/>
<path d="M2361 12141 c-11 -7 -9 -11 8 -21 23 -12 51 0 51 21 0 12 -41 11 -59
0z"/>
<path d="M5745 11701 c-78 -13 -4 -21 143 -16 194 6 224 25 37 23 -77 0 -158
-4 -180 -7z"/>
<path d="M8005 11280 c-23 -25 -15 -34 24 -25 28 6 49 21 40 29 -18 16 -48 14
-64 -4z"/>
<path d="M8335 11290 c-3 -5 3 -10 15 -10 12 0 18 5 15 10 -3 6 -10 10 -15 10
-5 0 -12 -4 -15 -10z"/>
<path d="M8480 11290 c20 -13 60 -13 60 0 0 6 -17 10 -37 10 -28 0 -34 -3 -23
-10z"/>
<path d="M7424 11269 c-3 -6 -1 -15 6 -19 12 -8 21 -7 75 6 l30 7 -30 7 c-46
12 -73 11 -81 -1z"/>
<path d="M6085 11211 c3 -5 -18 -13 -47 -18 -72 -11 -58 -28 22 -28 36 0 92
-4 125 -9 54 -8 59 -7 47 7 -30 35 -167 80 -147 48z"/>
<path d="M5755 11162 c-66 -8 -47 -22 29 -22 58 0 77 3 73 13 -4 12 -45 16
-102 9z"/>
<path d="M5373 11143 c-7 -2 -13 -9 -13 -14 0 -11 40 -12 58 0 22 14 -17 26
-45 14z"/>
<path d="M5125 11128 c-112 -10 -129 -15 -60 -17 84 -1 195 10 195 21 0 4 -12
7 -27 6 -16 -1 -64 -6 -108 -10z"/>
<path d="M4534 11096 c-29 -22 -15 -25 46 -13 47 9 51 12 30 18 -39 11 -55 10
-76 -5z"/>
<path d="M4670 11100 c-33 -7 -32 -7 15 -8 28 0 59 3 70 8 16 7 13 8 -15 8
-19 0 -51 -4 -70 -8z"/>
<path d="M8256 10924 c-4 -10 -1 -14 6 -12 15 5 23 28 10 28 -5 0 -13 -7 -16
-16z"/>
<path d="M7377 10852 c16 -23 51 -51 82 -68 30 -16 56 -34 58 -39 2 -6 -9 -18
-24 -27 l-28 -17 30 -1 c17 0 45 -4 63 -9 19 -6 32 -6 32 0 0 27 -139 147
-218 188 -21 11 -21 10 5 -27z"/>
<path d="M8403 10731 c-8 -7 -13 -21 -11 -30 3 -12 13 -15 48 -12 47 3 70 15
70 36 0 19 -89 24 -107 6z"/>
<path d="M8165 10729 c-4 -6 -5 -13 -2 -16 7 -7 27 6 27 18 0 12 -17 12 -25
-2z"/>
<path d="M6850 10666 c-21 -21 -8 -26 66 -26 86 0 204 19 204 32 0 13 -257 7
-270 -6z"/>
<path d="M6566 10662 c-2 -4 -1 -14 4 -21 10 -17 31 -5 23 14 -6 16 -19 20
-27 7z"/>
<path d="M5451 10626 c-14 -17 -7 -36 15 -36 15 0 18 18 5 38 -6 10 -10 10
-20 -2z"/>
<path d="M3825 10590 c-27 -5 -66 -13 -85 -19 -19 -6 -55 -11 -80 -11 -34 0
-58 -9 -100 -35 -30 -19 -59 -35 -65 -35 -15 0 -44 -36 -51 -65 -8 -34 -17
-37 -50 -20 -39 20 -70 19 -86 -3 -7 -11 -32 -31 -55 -46 -24 -14 -43 -30 -43
-35 0 -5 -22 -23 -50 -41 -46 -29 -70 -63 -55 -78 3 -3 14 -1 25 6 20 12 89 7
104 -8 13 -13 -1 -40 -23 -40 -10 0 -31 7 -47 15 -33 17 -44 7 -44 -39 0 -22
4 -27 16 -22 9 3 20 6 25 6 5 0 9 7 9 16 0 8 4 13 9 9 11 -6 8 -27 -8 -65 -9
-24 -10 -24 -10 -2 -1 28 -31 30 -31 2 0 -11 7 -23 15 -26 8 -4 15 -15 15 -25
0 -20 -16 -26 -22 -9 -2 6 -20 12 -41 15 -25 3 -36 1 -32 -6 9 -14 -13 -66
-31 -73 -7 -3 -16 -1 -19 5 -4 5 -11 7 -16 3 -5 -3 -17 0 -26 8 -17 14 -17 11
3 -53 6 -17 -42 -56 -54 -44 -4 3 0 10 8 15 8 5 11 12 8 16 -4 3 -14 -1 -23
-10 -9 -9 -21 -16 -26 -16 -6 0 -3 -7 6 -16 13 -14 14 -19 3 -25 -7 -5 -8 -9
-3 -10 6 0 -1 -4 -14 -8 -13 -3 -26 -13 -27 -21 -2 -8 -7 -28 -10 -45 -7 -27
-6 -29 9 -16 19 15 57 7 40 -10 -5 -5 -19 -11 -31 -12 -23 -1 -52 -45 -56 -85
-1 -21 -6 -26 -21 -24 -15 2 -185 14 -300 21 -22 2 116 109 175 137 8 4 27 18
42 30 15 12 41 25 58 29 17 4 28 10 25 15 -2 4 7 8 21 8 34 0 44 17 33 56 -11
39 -12 36 7 36 8 0 12 5 9 10 -8 12 -64 -18 -162 -87 -35 -23 -65 -43 -67 -43
-2 0 -27 -16 -56 -35 -70 -47 -246 -141 -317 -169 -64 -25 -188 -108 -197
-131 -3 -9 3 -19 15 -25 16 -9 27 -6 58 19 57 46 76 50 253 56 90 3 227 8 306
11 l142 5 0 -50 c0 -69 35 -152 86 -207 24 -25 44 -55 44 -66 0 -11 13 -44 30
-73 20 -35 26 -55 19 -62 -11 -11 3 -29 44 -58 19 -13 21 -23 19 -96 -1 -44
-5 -85 -8 -91 -11 -17 -22 -142 -14 -153 8 -10 13 -47 11 -75 -1 -13 -2 -13
-11 0 -7 11 -10 11 -10 2 0 -7 -4 -11 -9 -7 -5 3 -13 1 -16 -5 -9 -15 14 -40
31 -33 11 4 13 -3 11 -34 -2 -22 -7 -45 -11 -51 -3 -6 2 -37 13 -68 18 -50 19
-59 6 -77 -8 -12 -15 -26 -15 -32 0 -5 5 -3 10 5 14 22 12 7 -5 -33 -18 -42
-19 -58 -4 -37 9 13 10 13 6 -1 -3 -10 -11 -37 -18 -60 -7 -24 -18 -51 -26
-60 -20 -24 -16 -49 11 -59 13 -5 27 -19 31 -30 4 -12 16 -31 26 -41 10 -10
19 -32 19 -49 0 -16 5 -30 10 -30 6 0 10 6 10 13 0 9 3 8 9 -2 6 -9 8 -3 7 19
-1 19 -7 35 -14 38 -7 2 -10 8 -7 13 4 5 0 6 -8 3 -19 -7 -30 22 -17 46 9 17
57 29 93 22 13 -3 16 -9 11 -25 -6 -21 -5 -21 11 1 22 30 72 28 67 -3 -6 -32
-82 -127 -97 -121 -10 3 -12 0 -8 -12 3 -9 3 -14 -1 -11 -8 7 -76 -55 -76 -70
0 -21 29 -11 77 28 65 52 99 92 126 149 12 26 26 50 30 53 5 3 37 7 73 8 75 2
72 7 77 -139 3 -92 3 -91 5 25 l2 120 147 -5 c153 -5 193 -3 193 10 0 10 -129
25 -282 32 l-58 3 0 73 c0 41 -4 72 -10 72 -6 0 -10 -30 -10 -70 0 -49 -4 -70
-12 -71 -51 -5 -114 2 -126 15 -11 11 -16 42 -19 108 -4 114 -7 129 -39 178
-23 34 -25 45 -19 95 4 31 10 53 14 48 3 -5 32 -9 64 -9 77 1 87 -5 64 -43
-22 -38 -22 -63 4 -95 16 -20 29 -26 60 -26 56 0 59 21 10 68 -27 25 -39 45
-36 55 4 8 1 18 -4 22 -6 3 -9 11 -6 16 4 5 1 9 -4 9 -6 0 -14 18 -17 40 -4
22 -12 40 -18 40 -6 0 -4 5 4 10 13 8 12 10 -3 10 -26 0 -16 22 19 40 16 8 31
18 32 23 2 4 12 7 22 7 10 0 22 4 25 10 3 5 24 14 46 20 39 11 109 65 109 86
0 13 31 41 45 39 6 0 16 -4 23 -9 21 -13 21 -5 1 54 -10 30 -18 51 -18 47 -1
-4 -20 10 -43 33 -23 22 -45 40 -48 40 -3 0 -6 9 -6 20 0 11 4 20 8 20 4 0 8
4 8 10 0 5 -7 7 -15 4 -8 -4 -15 -2 -15 4 0 14 -58 21 -95 11 -16 -4 -64 -10
-105 -13 -41 -2 -90 -9 -108 -15 -18 -5 -30 -6 -27 -1 3 5 1 11 -5 15 -6 4 -8
10 -5 15 3 5 1 11 -5 15 -11 7 -13 67 -4 102 4 14 11 20 18 16 6 -4 3 4 -6 18
-18 29 -31 166 -15 176 5 3 5 8 -1 12 -7 4 -8 24 -5 51 5 36 15 53 56 92 32
30 59 48 74 48 13 0 22 4 19 9 -8 12 12 19 73 27 35 4 48 10 45 19 -3 7 3 16
14 19 29 9 44 47 32 76 -4 8 -4 26 0 40 l7 25 19 -32 c10 -18 27 -33 37 -33
12 0 16 4 11 13 -5 8 -2 8 9 -2 15 -12 17 -11 17 3 0 9 8 16 20 16 11 0 20 7
20 16 0 8 5 12 10 9 6 -3 10 -2 10 3 0 5 6 9 13 9 7 0 25 3 40 7 17 4 27 2 27
-4 0 -6 6 -10 13 -9 19 3 48 -12 41 -22 -3 -5 -2 -9 3 -8 27 5 45 -2 40 -15
-4 -11 -1 -13 10 -9 10 4 14 2 10 -4 -4 -6 1 -17 10 -24 9 -8 14 -9 11 -4 -4
6 0 19 7 29 13 17 15 15 24 -21 6 -21 25 -53 42 -71 17 -17 32 -37 33 -44 1
-8 12 -28 24 -45 12 -17 22 -38 22 -46 0 -8 6 -19 13 -25 7 -6 26 -39 41 -74
16 -35 33 -71 38 -81 7 -14 5 -24 -8 -38 -9 -10 -21 -16 -26 -13 -5 3 -14 1
-21 -4 -7 -5 -24 -12 -39 -16 -29 -6 -149 -58 -184 -79 -66 -39 -84 -54 -84
-70 0 -10 -4 -16 -9 -13 -5 4 -4 -5 2 -18 7 -14 21 -28 32 -31 16 -5 17 -7 5
-13 -26 -12 -21 -32 10 -38 16 -4 30 -10 30 -14 0 -4 15 -13 33 -20 17 -7 44
-27 58 -43 15 -16 31 -27 36 -24 5 3 22 -1 37 -9 46 -23 97 -18 149 17 26 17
47 35 47 40 0 5 7 9 15 9 9 0 24 19 35 44 10 24 27 49 37 55 14 8 15 12 5 19
-12 8 -12 13 -1 31 8 11 18 21 22 21 5 0 7 7 4 14 -4 10 -1 13 7 10 8 -3 17
-1 21 5 3 6 3 11 -2 11 -19 1 -43 29 -37 44 3 9 10 13 15 10 5 -3 9 0 9 5 0
18 14 13 50 -19 27 -23 29 -28 10 -18 -14 7 -28 17 -31 22 -4 4 -16 5 -29 1
-22 -7 -22 -14 2 -20 39 -9 57 -18 52 -26 -3 -5 1 -7 8 -4 7 3 24 -4 37 -14
18 -14 21 -20 11 -26 -9 -6 -11 -4 -5 5 5 9 4 11 -3 6 -17 -10 -15 -26 4 -26
32 0 115 -107 113 -145 -1 -17 -2 -17 -6 -2 -3 10 -14 17 -26 16 -21 0 -21 -1
-2 -9 13 -6 15 -9 5 -9 -10 -1 -11 -4 -4 -9 6 -4 10 -27 10 -52 -1 -34 -5 -45
-17 -45 -26 0 -48 -29 -37 -48 5 -10 6 -16 1 -15 -4 2 -9 -1 -11 -7 -2 -5 -10
-18 -19 -27 -14 -16 -13 -17 13 -15 16 1 32 6 36 12 4 5 6 -3 4 -20 -4 -34
-18 -42 -39 -20 -21 20 -24 19 -66 -12 -33 -26 -42 -28 -119 -26 -52 1 -89 7
-99 15 -9 7 -18 12 -20 11 -8 -7 -24 -2 -19 5 2 4 -16 9 -41 10 l-46 2 23 -25
c13 -14 27 -25 32 -25 17 0 106 -69 145 -113 21 -23 21 -25 5 -39 -27 -23
-188 -96 -227 -104 -19 -3 -38 -10 -41 -15 -7 -12 -74 -12 -74 0 0 5 19 21 43
34 65 39 112 88 130 135 20 49 20 52 8 52 -5 0 -11 -9 -14 -19 -6 -23 -76 -61
-112 -61 -32 0 -85 -26 -85 -43 0 -7 -18 -13 -47 -15 -25 -2 -55 -8 -66 -13
-10 -6 -30 -8 -43 -5 -24 6 -33 -7 -13 -19 17 -11 -28 -37 -51 -30 -22 7 -35
44 -27 74 7 28 -17 16 -34 -17 -8 -15 -20 -33 -26 -40 -16 -16 -16 -30 -2 -71
8 -21 17 -31 28 -29 9 2 30 -10 48 -25 40 -37 70 -52 116 -61 26 -5 35 -11 30
-21 -12 -34 91 -125 141 -125 34 0 203 64 230 87 49 41 37 78 -12 40 -10 -8
-16 -7 -23 4 -6 10 -11 11 -16 3 -20 -29 -126 -54 -139 -32 -3 5 -12 7 -19 4
-8 -3 -15 5 -17 19 -4 21 0 24 41 30 49 7 95 27 107 46 5 9 -1 10 -22 5 -90
-21 -182 -26 -195 -9 -9 10 -6 13 14 13 14 0 28 4 32 9 3 5 20 13 37 16 18 4
38 14 46 21 7 8 25 16 40 20 15 3 35 9 44 15 10 5 27 9 39 9 12 0 28 8 35 18
11 14 13 14 14 2 0 -13 1 -13 10 0 7 10 10 11 10 2 0 -7 -8 -16 -17 -19 -21
-8 -73 -61 -73 -74 0 -5 7 -9 15 -9 8 0 15 9 15 20 0 18 11 25 34 21 5 -1 15
7 23 19 8 11 20 20 28 20 8 0 29 20 47 45 18 24 41 47 50 50 19 7 78 -20 78
-35 0 -6 7 -10 15 -10 20 0 19 15 -5 85 -23 66 -18 98 15 113 25 12 65 5 65
-10 0 -5 4 -7 8 -4 5 3 8 -8 7 -24 -1 -17 0 -28 3 -25 3 2 11 -3 18 -13 12
-15 15 -15 23 -2 8 12 12 10 19 -10 11 -29 7 -40 -14 -40 -8 0 -14 -4 -14 -10
0 -5 -7 -10 -15 -10 -15 0 -28 -34 -25 -66 1 -11 1 -21 0 -24 -1 -3 -4 -18 -6
-35 -9 -57 -35 -133 -52 -154 -9 -11 -32 -45 -51 -74 -35 -55 -71 -81 -201
-144 -56 -26 -90 -36 -135 -38 -33 -2 -65 0 -71 3 -5 4 0 -1 12 -12 l22 -19
-36 -56 c-40 -64 -48 -71 -80 -71 -18 0 -22 4 -18 18 9 29 -29 63 -62 56 -50
-10 -167 -48 -177 -56 -5 -4 -17 -8 -26 -8 -30 0 -44 -65 -20 -94 7 -8 10 -20
6 -26 -10 -17 46 -82 67 -77 10 3 21 1 24 -4 3 -5 14 -9 25 -9 10 0 19 -6 19
-13 0 -7 10 -13 22 -14 12 -1 26 -9 30 -18 11 -18 34 -20 41 -2 3 7 6 4 6 -6
1 -16 7 -18 46 -14 25 2 48 1 50 -4 6 -8 83 -24 102 -20 7 1 21 -2 31 -8 30
-16 42 -6 262 212 72 70 130 130 130 133 0 5 53 75 83 108 9 11 17 26 17 33 0
7 14 19 30 28 17 9 30 19 30 23 0 4 11 12 25 19 20 9 27 8 34 -4 7 -13 9 -13
14 1 8 19 38 21 56 4 11 -11 12 -8 6 12 -8 27 -8 28 -6 48 2 22 17 12 39 -27
31 -55 28 -107 -5 -79 -11 9 -12 7 -7 -7 4 -10 1 -20 -7 -25 -7 -5 -11 -11 -8
-14 10 -11 130 56 146 80 24 37 12 96 -31 149 -35 42 -36 46 -36 129 l0 85 35
-20 c20 -12 35 -16 35 -10 0 6 -7 11 -15 11 -28 0 -52 39 -53 87 -2 58 -12 71
-12 15 0 -33 -4 -42 -17 -42 -15 0 -16 2 -3 10 13 9 13 11 0 20 -11 7 -16 5
-18 -5 -2 -8 -10 -15 -18 -15 -18 0 -19 52 -2 83 16 29 18 47 7 48 -5 1 -13 3
-19 4 -5 1 -14 3 -19 4 -6 0 -5 14 1 34 5 17 10 40 10 49 -1 10 4 21 10 24 6
4 8 2 4 -4 -3 -6 -1 -14 5 -17 6 -4 13 2 16 14 3 12 11 21 18 21 7 0 28 3 46
6 23 4 30 3 20 -4 -9 -7 -10 -12 -2 -16 22 -14 10 -26 -29 -32 -34 -6 -40 -10
-40 -30 0 -21 4 -24 33 -22 61 3 68 12 61 76 -4 31 -11 60 -16 63 -5 3 -2 19
7 35 20 39 20 44 -16 93 -30 40 -35 60 -26 106 2 11 -2 30 -10 42 -8 12 -13
30 -11 41 2 10 -4 27 -12 37 -9 11 -10 16 -2 11 8 -5 12 0 12 14 0 18 -3 19
-20 10 -14 -7 -20 -7 -20 0 0 5 5 10 10 10 6 0 10 7 10 15 0 8 -4 15 -9 15
-14 0 -31 57 -25 82 3 13 6 29 6 37 1 8 10 16 20 19 10 2 18 9 18 14 0 5 5 6
11 2 6 -3 9 -17 7 -29 -3 -15 -1 -22 7 -19 8 3 18 -15 28 -48 8 -29 16 -46 16
-37 1 15 -29 121 -47 167 -4 12 -1 14 14 9 19 -7 19 -7 0 8 -11 8 -21 22 -22
31 -1 8 -6 23 -10 32 -10 26 -12 52 -2 52 5 0 11 -7 14 -15 14 -35 26 -11 22
45 -1 33 0 60 4 60 12 0 18 -55 16 -163 -1 -59 2 -110 5 -114 4 -3 7 1 7 10 0
10 4 17 8 17 4 0 8 8 8 18 1 41 15 106 25 118 6 8 23 11 42 7 24 -3 39 1 57
16 23 19 24 20 5 22 -11 1 -24 2 -30 4 -5 1 -23 3 -39 3 -24 2 -26 4 -16 17 6
8 8 20 4 26 -4 7 -3 9 4 5 15 -9 32 26 31 66 0 18 -3 27 -6 20 -2 -7 -14 -17
-26 -24 -21 -11 -21 -11 -3 17 16 24 16 27 2 22 -19 -8 -19 -8 -5 32 13 37 28
42 21 6 -2 -15 0 -25 7 -25 27 0 -1 127 -46 205 -19 33 -38 66 -42 74 -4 7
-11 14 -16 14 -6 0 -18 13 -28 30 -13 20 -24 28 -37 24 -10 -3 -21 0 -24 7 -2
6 -5 2 -5 -8 -1 -14 -9 -8 -31 22 -28 39 -40 47 -64 43 -5 -1 -17 6 -28 16
-19 17 -20 17 -33 0 -19 -26 -49 -21 -68 13 -10 17 -27 30 -38 30 -11 0 -19 7
-19 16 0 8 -4 12 -10 9 -5 -3 -10 -1 -10 5 0 7 -12 9 -34 4 -36 -6 -42 3 -22
35 5 8 4 16 -4 21 -7 4 -10 15 -7 24 4 9 1 16 -5 16 -13 0 -37 -30 -38 -47 0
-19 18 -15 23 5 4 15 5 15 6 0 1 -20 -27 -51 -39 -43 -5 3 -7 17 -4 31 3 17 0
24 -8 23 -7 -1 -21 1 -31 6 -23 10 -50 -13 -44 -37 7 -24 -12 -23 -21 1 -9 23
-71 76 -79 67 -4 -3 2 -12 12 -20 26 -19 13 -45 -19 -39 -21 4 -25 10 -20 25
8 26 -21 84 -46 91 -14 3 -18 10 -14 22 4 9 12 14 19 11 7 -2 17 0 23 6 15 15
29 3 35 -30 6 -30 63 -99 73 -89 4 3 -4 28 -17 54 -13 26 -24 50 -25 53 -6 32
-18 60 -25 60 -5 0 -9 8 -9 19 0 20 -25 31 -72 31 -16 0 -28 3 -28 8 0 4 -15
7 -32 8 -18 0 -58 3 -88 6 -30 3 -77 2 -105 -2z m255 -210 c0 -5 -1 -11 -2
-12 -1 -2 4 -14 11 -28 11 -22 10 -23 -2 -7 -19 23 -25 22 -29 -5 -2 -15 -10
-23 -23 -23 -13 0 -21 8 -23 23 -2 12 1 22 7 22 6 0 11 7 11 16 0 10 5 14 16
10 8 -3 12 -2 9 4 -3 6 1 10 9 10 9 0 16 -4 16 -10z m-173 -106 c-3 -3 -12 -4
-19 -1 -8 3 -5 6 6 6 11 1 17 -2 13 -5z m-418 -21 c-5 -31 2 -35 29 -17 23 15
25 15 13 1 -7 -9 -11 -17 -8 -17 3 0 2 -13 -3 -29 -5 -18 -4 -46 2 -70 6 -22
7 -49 2 -58 -10 -23 -11 -143 -1 -143 13 0 7 -41 -8 -56 -13 -14 -15 -13 -15
5 0 12 -4 21 -9 21 -5 0 -10 12 -10 28 -1 15 -2 45 -4 67 -2 22 3 55 11 74 8
20 11 48 8 65 -4 17 -8 45 -10 63 -2 18 -7 37 -11 43 -3 5 -3 15 0 20 7 12 16
13 14 3z m513 -278 c18 -2 37 -10 43 -19 7 -9 17 -16 22 -16 12 0 56 -50 49
-57 -2 -3 1 -11 7 -18 10 -11 16 -10 32 3 17 14 18 15 7 1 -6 -9 -9 -19 -5
-22 3 -4 1 -7 -5 -7 -9 0 -9 -5 -2 -17 6 -10 16 -36 24 -58 16 -48 32 -50 28
-4 -3 27 -2 31 10 22 8 -7 15 -29 17 -50 2 -21 4 -45 5 -53 3 -24 35 -80 46
-80 6 0 16 -11 22 -25 7 -15 14 -21 18 -15 4 7 20 -2 42 -24 19 -19 38 -33 41
-29 4 3 9 -3 13 -13 19 -60 52 -109 72 -109 7 0 21 -22 31 -50 21 -62 55 -117
66 -107 4 4 6 0 3 -8 -5 -17 21 -50 39 -50 7 0 13 -6 13 -13 0 -7 9 -18 19
-24 13 -8 18 -19 14 -33 -3 -11 0 -20 6 -20 6 0 11 6 11 13 0 9 2 9 9 -1 6
-11 10 -11 18 0 14 17 1 94 -15 91 -15 -4 -16 24 0 33 7 4 8 3 4 -4 -4 -7 -3
-12 3 -12 5 0 12 -10 16 -22 6 -22 20 -59 34 -87 10 -20 25 -15 31 9 l5 22 19
-20 c17 -20 14 -48 -5 -36 -5 3 -8 -9 -7 -28 4 -44 -19 -44 -42 -1 l-17 33 -7
-39 c-3 -21 -13 -51 -21 -67 -8 -16 -15 -35 -15 -41 0 -7 -4 -13 -8 -13 -5 0
-9 -12 -10 -27 0 -16 -8 -48 -17 -73 -9 -25 -19 -58 -21 -75 -4 -31 -25 -105
-30 -105 -34 0 -66 100 -47 149 17 46 17 273 -1 315 -25 61 -143 199 -160 189
-5 -3 -6 -1 -2 5 4 7 1 12 -8 12 -9 0 -16 7 -16 15 0 8 -5 15 -11 15 -5 0 -8
4 -5 9 3 4 -7 19 -22 32 -23 20 -24 21 -9 2 18 -21 18 -21 -1 -16 -31 8 -92
73 -116 123 -12 25 -36 65 -55 90 -26 36 -29 46 -17 48 9 2 16 7 16 12 0 5 -9
7 -20 5 -11 -2 -18 0 -15 5 3 5 -3 17 -15 27 -11 10 -20 23 -20 30 0 7 -5 13
-11 13 -5 0 -8 4 -5 9 3 5 0 14 -8 20 -8 6 -29 41 -47 76 -18 36 -36 60 -40
54 -5 -8 -8 -8 -13 0 -4 6 -5 15 -2 20 4 5 1 22 -5 38 -6 15 -12 38 -14 51 -2
18 0 20 12 11 7 -7 28 -13 45 -14z m198 -129 c0 -3 -4 -8 -10 -11 -5 -3 -10
-1 -10 4 0 6 5 11 10 11 6 0 10 -2 10 -4z m19 -35 c7 -5 12 -14 9 -21 -2 -7
-10 -4 -22 9 -19 21 -12 28 13 12z m-1319 -161 c0 -5 -4 -10 -10 -10 -5 0 -10
5 -10 10 0 6 5 10 10 10 6 0 10 -4 10 -10z m2015 -30 c-3 -5 -11 -10 -16 -10
-6 0 -7 5 -4 10 3 6 11 10 16 10 6 0 7 -4 4 -10z m-150 -180 c-3 -5 -1 -10 4
-10 6 0 11 -7 11 -15 0 -8 -4 -15 -10 -15 -5 0 -10 4 -10 9 0 5 -3 16 -6 25
-3 9 -1 16 6 16 6 0 8 -4 5 -10z m-35 -50 c0 -5 7 -7 15 -4 11 5 13 2 9 -10
-8 -21 -17 -20 -32 4 -7 12 -8 20 -2 20 5 0 10 -4 10 -10z m-583 -106 c-3 -4
4 -15 16 -25 19 -16 20 -20 7 -28 -8 -6 -15 -14 -15 -18 -1 -19 -31 -53 -47
-53 -10 0 -18 -4 -18 -9 0 -5 -9 -11 -20 -14 -22 -6 -54 29 -43 46 3 5 -4 6
-17 2 l-22 -7 21 21 c12 12 26 19 31 16 6 -4 10 -3 10 2 0 4 20 17 44 27 25
11 44 22 44 25 -1 13 2 21 9 21 3 0 4 -3 0 -6z m7 -138 c-3 -9 -12 -12 -21 -9
-9 4 -14 2 -11 -3 4 -5 -5 -10 -18 -10 -31 -2 -30 2 4 20 35 19 53 20 46 2z
m623 -159 c12 -7 11 -11 -4 -22 -16 -12 -19 -11 -25 12 -8 28 2 58 10 33 3 -8
11 -19 19 -23z m-1417 4 c0 -16 -13 -19 -26 -6 -19 19 -17 24 6 18 11 -3 20
-9 20 -12z m121 -10 c-11 -7 -9 -10 8 -16 11 -3 21 -11 21 -16 0 -13 -9 -11
-26 6 -9 8 -26 15 -40 15 -39 0 -28 15 14 17 24 2 32 0 23 -6z m-234 -133 c-3
-8 -6 -5 -6 6 -1 11 2 17 5 13 3 -3 4 -12 1 -19z m56 -163 c20 -41 37 -76 37
-79 0 -7 -44 6 -58 17 -10 8 -16 7 -23 -4 -6 -10 -9 -5 -9 19 0 20 4 31 10 27
11 -7 14 8 3 18 -10 10 -15 77 -6 77 4 0 25 -34 46 -75z m1525 -229 c2 -16 -1
-33 -7 -39 -8 -8 -11 -5 -11 11 0 12 -4 22 -9 22 -8 0 -8 11 -2 38 1 2 7 2 14
0 6 -3 13 -17 15 -32z m-1664 -10 c-3 -15 -8 -25 -11 -23 -2 3 -1 17 3 31 3
15 8 25 11 23 2 -3 1 -17 -3 -31z m646 -16 c-8 -5 -19 -10 -25 -10 -5 0 -3 5
5 10 8 5 20 10 25 10 6 0 3 -5 -5 -10z m-546 -78 c9 -17 16 -48 16 -68 l0 -37
-26 28 c-14 15 -23 34 -20 41 3 8 -3 18 -14 24 -13 7 -17 16 -13 28 6 15 5 15
-10 3 -25 -20 -30 -8 -10 26 l17 30 22 -22 c12 -12 29 -36 38 -53z m-107 -56
c-4 -10 -1 -13 7 -10 7 3 33 -18 59 -46 42 -47 45 -52 35 -80 -11 -33 -7 -32
-100 -35 -56 -1 -68 1 -69 14 -2 31 3 45 34 91 17 25 24 39 15 32 -24 -20 -34
5 -12 28 23 23 38 25 31 6z m770 -1 c0 -8 -4 -12 -9 -9 -5 3 -6 10 -3 15 9 13
12 11 12 -6z m940 -65 c27 -30 31 -91 7 -111 -19 -16 -44 -21 -44 -8 0 5 -15
32 -34 61 -28 46 -32 57 -22 78 20 47 37 44 93 -20z m-1747 16 c0 -3 -4 -8
-10 -11 -5 -3 -10 -1 -10 4 0 6 5 11 10 11 6 0 10 -2 10 -4z m157 -118 c-3 -8
-6 -5 -6 6 -1 11 2 17 5 13 3 -3 4 -12 1 -19z"/>
<path d="M4675 9039 c-4 -6 -5 -12 -2 -15 2 -3 7 2 10 11 7 17 1 20 -8 4z"/>
<path d="M4056 9192 c-3 -5 1 -9 9 -9 8 0 12 4 9 9 -3 4 -7 8 -9 8 -2 0 -6 -4
-9 -8z"/>
<path d="M3200 8400 c0 -5 5 -10 11 -10 5 0 7 5 4 10 -3 6 -8 10 -11 10 -2 0
-4 -4 -4 -10z"/>
<path d="M3250 8311 c0 -5 5 -13 10 -16 6 -3 10 -2 10 4 0 5 -4 13 -10 16 -5
3 -10 2 -10 -4z"/>
<path d="M4180 10550 c8 -5 22 -9 30 -9 10 0 8 3 -5 9 -27 12 -43 12 -25 0z"/>
<path d="M4229 10538 c-19 -57 2 -110 48 -125 34 -10 42 -6 22 14 -16 16 6 53
31 53 11 0 20 4 20 9 0 12 -59 33 -71 25 -5 -3 -19 -2 -30 1 -17 6 -19 9 -8
16 10 6 11 9 2 9 -7 0 -13 -1 -14 -2z"/>
<path d="M4191 10490 c0 -8 4 -22 9 -30 12 -18 12 -2 0 25 -6 13 -9 15 -9 5z"/>
<path d="M4407 10413 c-4 -6 3 -19 16 -29 12 -11 17 -12 11 -4 -6 8 -13 22
-16 30 -3 9 -7 10 -11 3z"/>
<path d="M4240 10376 c0 -20 19 -31 32 -18 7 7 3 14 -11 21 -17 10 -21 9 -21
-3z"/>
<path d="M4470 10370 c0 -11 6 -20 14 -20 9 0 12 7 9 20 -3 11 -9 20 -14 20
-5 0 -9 -9 -9 -20z"/>
<path d="M4529 10353 c-8 -9 -7 -17 5 -28 16 -17 36 -13 36 7 0 6 7 16 16 23
14 10 11 11 -15 11 -17 0 -36 -5 -42 -13z"/>
<path d="M4490 10311 c0 -13 7 -29 15 -37 13 -14 15 -13 15 9 0 14 -7 30 -15
37 -13 10 -15 9 -15 -9z"/>
<path d="M6565 10310 c4 -6 11 -8 16 -5 14 9 11 15 -7 15 -8 0 -12 -5 -9 -10z"/>
<path d="M8325 10268 c-53 -22 -166 -30 -218 -15 l-29 8 35 -31 c19 -16 41
-30 48 -31 8 -1 4 -4 -9 -7 -13 -4 -24 -11 -25 -17 -2 -12 86 -19 122 -10 l26
7 -23 12 c-21 11 -19 13 35 38 103 47 133 84 38 46z"/>
<path d="M7725 10228 c-210 -70 -561 -92 -687 -43 -11 4 -18 3 -18 -4 0 -6 5
-11 12 -11 21 0 -5 -17 -47 -31 -22 -7 -104 -15 -183 -18 -78 -4 -142 -10
-142 -15 -1 -13 7 -13 259 -20 185 -5 217 -4 231 9 10 9 33 17 51 19 19 2 55
7 81 11 36 5 53 3 76 -10 25 -15 36 -16 75 -6 25 6 67 11 92 11 25 0 76 4 113
9 37 5 129 15 205 22 75 7 137 15 137 19 0 4 -34 10 -75 13 -90 7 -102 12 -80
37 9 10 15 25 13 32 -2 10 -29 5 -113 -24z"/>
<path d="M6156 10194 c-80 -28 -154 -31 -216 -9 -24 8 -45 14 -47 12 -2 -3 12
-16 31 -31 31 -23 34 -30 26 -51 -5 -13 -6 -26 -2 -28 11 -7 301 -1 308 6 6 6
-59 37 -77 37 -19 0 -8 19 26 44 32 25 46 47 28 45 -5 0 -39 -11 -77 -25z"/>
<path d="M3056 10125 c-4 -10 1 -15 16 -15 17 0 18 2 8 15 -7 8 -14 15 -15 15
-2 0 -5 -7 -9 -15z"/>
<path d="M2920 10111 c0 -6 5 -13 10 -16 6 -3 10 1 10 9 0 9 -4 16 -10 16 -5
0 -10 -4 -10 -9z"/>
<path d="M3025 10109 c-4 -6 -5 -12 -2 -15 2 -3 7 2 10 11 7 17 1 20 -8 4z"/>
<path d="M5758 10106 c-16 -12 -25 -36 -14 -36 20 0 56 22 56 35 0 18 -19 19
-42 1z"/>
<path d="M2956 10071 c-3 -22 -2 -50 3 -63 8 -21 10 -21 16 -5 4 10 3 23 -3
29 -6 6 -8 26 -5 44 3 19 3 34 1 34 -3 0 -8 -18 -12 -39z"/>
<path d="M6428 10093 c12 -2 30 -2 40 0 9 3 -1 5 -23 4 -22 0 -30 -2 -17 -4z"/>
<path d="M3014 10068 c-11 -17 -12 -58 -2 -58 4 0 8 7 8 16 0 10 6 14 15 10
18 -7 19 3 1 27 -11 14 -16 15 -22 5z"/>
<path d="M5645 10016 c-77 -35 -150 -49 -214 -42 -51 5 -54 5 -36 -9 49 -38
149 -39 219 -2 18 9 94 78 85 76 -2 0 -27 -10 -54 -23z"/>
<path d="M2910 9983 c0 -5 4 -15 10 -23 11 -18 25 -7 17 15 -6 15 -27 21 -27
8z"/>
<path d="M7080 9722 c-63 -29 -83 -72 -32 -72 38 0 72 26 72 56 0 24 -12 29
-40 16z"/>
<path d="M7515 9609 c-4 -6 -5 -13 -2 -16 7 -7 27 6 27 18 0 12 -17 12 -25 -2z"/>
<path d="M5775 9601 c-53 -11 -37 -35 30 -44 113 -15 215 6 215 45 0 9 -200 9
-245 -1z"/>
<path d="M6940 9599 c-25 -4 -66 -5 -92 -3 -37 4 -48 2 -48 -10 0 -10 22 -17
83 -25 169 -21 176 -21 193 5 9 13 13 28 9 34 -7 11 -78 11 -145 -1z"/>
<path d="M6354 9479 c-30 -8 -72 -45 -63 -54 3 -2 26 2 52 10 51 15 115 17
123 3 8 -13 24 -9 24 7 0 18 -51 45 -82 44 -13 0 -37 -5 -54 -10z"/>
<path d="M1930 9460 l-45 -5 2 -55 c4 -80 10 -90 33 -52 17 28 29 36 51 34 3
-1 13 14 22 33 15 32 15 35 -1 43 -9 4 -37 5 -62 2z"/>
<path d="M5180 9439 c-26 -10 -150 -127 -150 -141 0 -18 29 -6 66 27 21 19 42
35 46 35 8 0 42 33 72 68 21 25 10 28 -34 11z"/>
<path d="M5350 9438 c0 -9 5 -20 10 -23 13 -8 13 5 0 25 -8 13 -10 13 -10 -2z"/>
<path d="M7514 9248 c-58 -62 -92 -94 -169 -162 -95 -84 -238 -99 -353 -36
l-57 31 -22 -26 c-31 -36 -29 -45 12 -45 26 0 44 -9 72 -35 50 -47 77 -53 114
-25 17 12 48 23 70 24 25 2 57 15 82 33 35 24 60 32 143 43 56 7 120 10 143 6
37 -6 41 -5 33 10 -6 11 -27 18 -63 21 -30 2 -60 10 -67 17 -11 11 -9 17 17
35 30 22 128 171 112 171 -5 0 -35 -28 -67 -62z"/>
<path d="M4892 9135 c2 -47 6 -85 9 -85 3 0 16 -32 29 -71 26 -83 35 -87 16
-8 -10 45 -10 57 1 67 17 16 17 37 -1 54 -18 18 -32 63 -17 54 6 -4 14 0 18 9
4 11 -4 25 -22 41 -16 13 -30 24 -32 24 -2 0 -2 -38 -1 -85z"/>
<path d="M2155 9112 c-3 -4 -12 -7 -18 -7 -7 0 -13 -4 -15 -10 -4 -16 164 -26
228 -13 14 2 61 1 105 -3 44 -5 159 -10 255 -13 96 -2 182 -6 190 -7 25 -7 24
36 -2 47 -25 11 -659 11 -677 0 -5 -3 -20 -2 -34 3 -14 5 -28 7 -32 3z"/>
<path d="M8123 9079 c-10 -10 -9 -17 4 -31 30 -33 47 -11 20 25 -10 14 -15 15
-24 6z"/>
<path d="M8026 9045 c-71 -63 -227 -105 -317 -86 -65 14 -65 14 -44 -9 36 -40
79 -53 153 -45 37 4 72 10 77 15 6 4 22 10 36 13 14 4 36 15 50 27 13 11 29
23 34 28 6 5 23 17 38 26 17 12 27 27 27 42 0 31 -7 30 -54 -11z"/>
<path d="M5550 9061 c0 -18 66 -32 173 -38 l109 -6 -4 24 c-3 24 -4 24 -140
27 -81 1 -138 -1 -138 -7z"/>
<path d="M5096 9033 c10 -40 14 -41 14 -5 0 18 -5 32 -10 32 -6 0 -8 -11 -4
-27z"/>
<path d="M6502 9006 c-16 -43 -69 -97 -145 -146 -32 -21 -53 -41 -48 -44 11
-7 41 3 59 21 8 7 30 26 50 41 21 15 41 34 46 42 5 8 25 30 43 49 19 19 31 41
28 49 -3 7 -5 16 -5 18 0 2 -4 4 -8 4 -4 0 -14 -15 -20 -34z"/>
<path d="M6780 8964 c-40 -14 -87 -24 -122 -24 -61 0 -67 -4 -44 -35 12 -16
25 -19 74 -18 61 1 109 19 150 56 21 20 30 48 15 46 -5 -1 -37 -12 -73 -25z"/>
<path d="M8250 8939 c49 -39 83 -51 144 -51 34 0 68 2 76 5 8 2 27 7 43 12 19
5 27 14 27 30 0 21 -3 23 -28 15 -68 -19 -149 -21 -209 -6 -78 20 -83 20 -53
-5z"/>
<path d="M5061 8884 c-12 -27 -11 -28 4 -12 10 9 16 21 13 28 -2 7 -10 -1 -17
-16z"/>
<path d="M4962 8870 c2 -54 -1 -62 -22 -55 -16 5 -20 2 -20 -14 0 -16 6 -20
22 -18 19 2 24 -4 29 -33 5 -27 7 -29 8 -10 1 24 21 66 21 46 0 -6 9 0 21 12
11 13 19 29 17 37 -2 12 -7 12 -28 2 -24 -12 -26 -11 -37 23 -9 28 -11 30 -11
10z"/>
<path d="M6006 8792 c-16 -27 100 -55 134 -33 21 14 9 22 -46 27 -27 2 -56 7
-66 10 -9 2 -19 1 -22 -4z"/>
<path d="M3700 8680 c0 -11 7 -20 15 -20 8 0 15 6 15 14 0 8 -7 16 -15 20 -10
4 -15 -1 -15 -14z"/>
<path d="M5125 8690 c-3 -5 -1 -10 4 -10 6 0 11 5 11 10 0 6 -2 10 -4 10 -3 0
-8 -4 -11 -10z"/>
<path d="M5667 8650 c-3 -11 -1 -23 4 -26 5 -3 9 6 9 20 0 31 -6 34 -13 6z"/>
<path d="M2205 8625 c-55 -7 -103 -14 -107 -14 -5 -1 -8 -8 -8 -16 0 -15 26
-21 114 -29 27 -2 52 -8 55 -13 3 -5 23 -9 43 -9 21 0 45 -7 56 -17 10 -9 26
-17 35 -17 9 0 18 -4 22 -9 5 -10 101 -8 142 2 11 3 42 9 67 12 30 5 46 12 46
22 0 8 14 19 30 25 131 45 -257 95 -495 63z"/>
<path d="M5658 8572 c-29 -14 -38 -42 -15 -42 17 0 50 35 46 47 -2 5 -16 3
-31 -5z"/>
<path d="M6834 8565 c-10 -26 6 -38 27 -19 10 9 16 21 13 25 -8 14 -34 10 -40
-6z"/>
<path d="M5120 8544 c0 -8 5 -12 10 -9 6 4 8 11 5 16 -9 14 -15 11 -15 -7z"/>
<path d="M7360 8541 c0 -17 6 -21 33 -21 46 0 67 16 30 23 -15 3 -36 9 -45 12
-14 6 -18 2 -18 -14z"/>
<path d="M7505 8531 c18 -17 185 -19 185 -2 0 5 -44 9 -97 10 -65 1 -95 -1
-88 -8z"/>
<path d="M5941 8449 c-46 -9 -74 -26 -65 -40 8 -14 47 -10 68 6 11 8 28 15 38
15 18 0 25 15 11 23 -5 2 -28 0 -52 -4z"/>
<path d="M6240 8445 c-7 -8 -21 -15 -31 -15 -14 0 -19 -7 -19 -25 0 -15 -6
-25 -14 -25 -8 0 -24 -14 -36 -30 -12 -17 -38 -37 -58 -45 -32 -14 -39 -14
-68 0 -42 20 -74 19 -74 -1 0 -11 -5 -14 -17 -9 -41 17 -53 17 -53 2 0 -8 7
-20 15 -27 20 -17 19 -36 -2 -44 -10 -3 -26 -11 -35 -18 -15 -10 -20 -10 -30
5 -11 15 -17 16 -39 5 -43 -20 -63 -85 -35 -114 24 -24 43 -16 60 26 16 40 31
48 64 31 9 -5 39 -15 67 -23 55 -15 70 -40 39 -63 -17 -12 -16 -16 21 -54 41
-42 55 -47 34 -13 -11 17 -11 25 0 45 10 19 10 29 1 47 -9 18 -9 25 6 41 9 10
25 19 36 19 13 0 18 7 18 25 0 14 11 37 24 50 14 13 28 35 31 47 20 65 81 86
142 48 22 -13 50 -19 92 -19 33 0 64 -2 70 -5 8 -5 21 15 21 34 0 15 -44 19
-60 6 -19 -16 -80 -13 -91 6 -5 7 -9 24 -9 38 0 30 -26 70 -44 70 -8 0 -19 -7
-26 -15z"/>
<path d="M4920 8435 c0 -2 12 -16 26 -31 19 -18 25 -21 19 -7 -4 10 -8 23 -8
28 0 10 -37 19 -37 10z"/>
<path d="M2811 8391 c-19 -12 -6 -45 15 -37 9 3 22 6 30 6 12 0 12 4 2 20 -14
22 -25 24 -47 11z"/>
<path d="M3515 8391 c-3 -6 -31 -11 -61 -11 l-55 0 3 -47 3 -47 60 3 c73 3 80
7 62 35 -10 15 -12 27 -6 39 9 16 12 16 37 -1 l27 -17 -16 25 c-18 27 -43 37
-54 21z"/>
<path d="M3936 8358 c3 -4 9 -8 15 -8 5 0 9 4 9 8 0 5 -7 9 -15 9 -8 0 -12 -4
-9 -9z"/>
<path d="M4950 8355 c-7 -9 -11 -17 -9 -20 3 -2 10 5 17 15 14 24 10 26 -8 5z"/>
<path d="M4860 8325 c0 -9 6 -12 15 -9 8 4 15 7 15 9 0 2 -7 5 -15 9 -9 3 -15
0 -15 -9z"/>
<path d="M6464 8278 c-4 -6 4 -19 19 -30 31 -23 35 -54 11 -100 -12 -23 -13
-33 -4 -42 8 -8 16 -5 29 13 17 22 23 23 52 15 45 -13 56 -49 34 -108 -24 -61
-39 -64 -86 -16 -33 34 -43 39 -59 30 -10 -5 -27 -10 -36 -10 -10 0 -25 -7
-35 -16 -26 -24 -59 -11 -91 36 -15 22 -35 40 -43 40 -23 0 -18 -15 15 -52 17
-18 30 -39 30 -48 -1 -25 -37 -60 -62 -60 -21 0 -23 -4 -20 -43 3 -32 -2 -49
-18 -69 -35 -45 -111 -56 -151 -22 -14 12 -18 11 -35 -7 -10 -12 -31 -27 -45
-35 -18 -9 -26 -21 -26 -39 0 -15 -12 -38 -27 -54 -14 -15 -26 -32 -26 -38 0
-16 -21 -30 -56 -37 -30 -7 -32 -6 -43 39 -6 25 -18 48 -25 51 -8 3 -20 19
-26 35 -7 16 -21 34 -31 40 -10 5 -21 24 -24 43 -8 40 11 140 33 178 12 21 13
31 5 39 -8 8 -8 19 2 43 23 54 -21 89 -59 47 -14 -15 -17 -32 -14 -73 2 -29 8
-61 12 -70 6 -14 4 -18 -12 -18 -31 0 -54 -27 -42 -50 27 -50 -15 -150 -62
-150 -16 0 -18 -4 -12 -22 4 -13 20 -68 34 -123 l27 -100 49 -5 c57 -6 73 -32
30 -51 -24 -11 -44 -45 -33 -56 11 -10 39 15 70 63 21 32 40 50 56 52 21 3 23
1 19 -32 -5 -43 4 -45 44 -11 34 29 59 31 92 10 29 -19 75 -5 129 41 l37 31
-25 11 c-14 6 -25 18 -25 26 0 25 26 36 81 34 30 -2 62 1 72 6 11 5 17 4 17
-4 0 -6 7 -18 15 -26 27 -27 20 -35 -50 -59 l-20 -7 20 -8 c11 -4 47 -14 79
-21 42 -9 69 -22 90 -44 17 -16 40 -35 51 -40 11 -6 21 -21 23 -33 3 -22 1
-23 -50 -20 -52 3 -53 4 -56 36 -2 17 -4 32 -5 32 -25 7 -129 9 -121 3 17 -13
23 -40 11 -52 -8 -8 -6 -15 5 -28 8 -10 18 -26 21 -35 3 -10 12 -15 20 -12 18
7 31 -11 46 -64 14 -51 22 -48 30 11 6 38 9 42 36 43 17 1 43 8 58 17 44 23
75 8 68 -35 0 -5 8 -8 19 -8 14 0 20 -7 20 -23 0 -32 9 -38 32 -26 15 8 24 7
35 -3 12 -13 11 -22 -10 -69 -13 -30 -27 -71 -31 -91 -7 -41 -28 -63 -51 -54
-17 6 -20 41 -5 51 13 8 13 65 -1 65 -6 0 -8 11 -4 28 3 16 2 39 -3 53 -7 18
-11 -7 -17 -97 -4 -67 -10 -125 -14 -130 -3 -5 -17 -15 -31 -22 -14 -7 -30
-23 -35 -35 -8 -17 -18 -22 -48 -21 -55 2 -62 13 -46 73 11 43 17 51 36 51 12
0 27 9 33 20 6 11 17 20 25 20 9 0 15 10 15 26 0 14 5 34 11 45 12 24 3 59
-16 59 -7 0 -21 -7 -30 -16 -12 -13 -19 -14 -28 -5 -16 16 -37 14 -37 -4 0 -9
-7 -27 -16 -40 -18 -28 -10 -53 12 -34 8 6 14 18 14 26 0 19 30 29 41 12 16
-26 11 -69 -9 -69 -9 0 -23 -9 -30 -20 -7 -11 -22 -20 -34 -20 -17 0 -19 -3
-10 -12 19 -19 14 -37 -13 -50 -13 -6 -22 -15 -19 -19 3 -5 -1 -9 -8 -9 -10 0
-13 10 -10 35 4 37 -3 41 -43 26 -22 -9 -75 6 -75 20 0 5 4 9 9 9 15 0 42 31
36 41 -11 16 -35 9 -35 -10 0 -25 -21 -32 -51 -15 -13 7 -32 13 -41 14 -9 0
-19 8 -21 18 -4 15 -5 15 -6 -2 -1 -15 -4 -16 -16 -6 -10 8 -19 9 -27 3 -7 -5
-26 -10 -41 -11 -16 -1 -35 -6 -43 -10 -8 -5 -36 -6 -62 -2 l-47 6 19 -61 c26
-79 35 -87 83 -77 32 7 39 12 41 36 l4 29 84 -7 c47 -4 91 -9 99 -12 19 -8 26
-44 9 -51 -25 -10 -15 -39 21 -59 28 -15 35 -24 30 -39 -3 -11 -8 -33 -12 -48
-3 -18 -15 -32 -30 -38 -24 -9 -24 -9 -6 -33 20 -27 25 -22 38 37 5 24 10 28
33 25 24 -3 27 -6 24 -38 -4 -40 -17 -59 -47 -70 -12 -5 -22 -14 -22 -22 0 -7
-3 -24 -7 -36 l-8 -24 22 22 c16 16 25 19 35 10 33 -27 15 -90 -25 -90 -23 0
-16 -28 12 -48 10 -7 18 -22 18 -33 0 -10 4 -27 9 -37 5 -9 12 -25 15 -36 4
-10 12 -16 19 -13 9 3 14 -6 15 -27 1 -17 5 -39 8 -49 5 -15 2 -16 -19 -6 -38
17 -82 -10 -99 -63 -20 -58 -45 -61 -83 -9 -17 22 -37 41 -45 41 -21 0 -75
-37 -75 -52 0 -20 -28 -16 -47 6 -17 20 -18 19 -18 -39 0 -33 -3 -77 -6 -97
-6 -34 -5 -37 22 -40 23 -2 30 -9 32 -30 3 -24 0 -28 -24 -28 -26 0 -27 0 -20
-52 8 -59 13 -71 30 -65 6 3 12 -6 12 -19 3 -43 14 -75 24 -69 6 3 10 -3 10
-14 0 -23 -15 -28 -23 -8 -3 6 -6 2 -6 -11 -1 -14 -10 -26 -24 -31 -40 -15
-47 -34 -48 -125 -1 -81 -2 -86 -22 -86 -115 0 -392 26 -455 42 -7 2 -19 -11
-27 -28 -12 -29 -12 -31 6 -27 40 11 106 -27 114 -64 2 -10 6 -30 10 -45 5
-19 0 -41 -15 -72 -18 -38 -27 -46 -57 -52 -47 -9 -95 15 -131 65 l-29 39 -56
-63 c-69 -78 -104 -165 -87 -223 5 -20 10 -49 10 -64 0 -36 15 -43 40 -18 11
11 26 20 34 20 23 0 56 -63 56 -107 0 -37 2 -41 31 -47 17 -3 48 -6 69 -6 55
0 129 -25 160 -55 28 -26 28 -26 35 -6 11 35 36 42 122 31 71 -9 222 -24 517
-50 60 -6 118 -12 130 -15 12 -2 48 -7 81 -10 33 -4 64 -10 69 -15 15 -15 -2
-56 -28 -68 -20 -9 -26 -21 -31 -64 -4 -30 -5 -67 -3 -83 3 -26 8 -30 48 -37
67 -12 70 -9 70 75 0 59 -4 80 -20 100 -24 30 -25 50 -4 68 13 11 39 11 152
-1 76 -7 166 -15 202 -17 155 -9 309 -32 346 -51 86 -45 117 -104 137 -263
l11 -96 24 56 c12 31 35 87 49 125 25 66 26 69 9 98 -17 27 -17 31 -1 54 16
24 20 25 83 19 37 -3 101 -11 142 -16 41 -6 124 -13 184 -16 99 -4 108 -3 103
12 -9 21 17 71 43 85 16 8 20 21 20 60 0 51 8 64 34 54 16 -6 20 -64 4 -64 -4
0 -8 -5 -8 -11 0 -5 5 -7 10 -4 13 8 16 -84 4 -125 -2 -9 6 -19 19 -25 26 -12
27 -57 2 -85 -17 -19 -13 -87 7 -140 10 -24 11 -23 34 29 28 63 29 74 9 91
-17 15 -20 85 -4 96 6 3 41 6 77 5 36 -1 63 2 59 5 -4 4 -3 12 2 18 4 6 11 23
15 38 5 20 2 28 -11 31 -10 3 -4 5 14 6 26 1 30 -2 26 -19 -3 -11 -9 -17 -14
-14 -5 3 -9 -2 -9 -10 0 -8 4 -17 9 -20 5 -3 7 -15 4 -26 -6 -23 28 -40 78
-40 88 0 92 -61 6 -98 -18 -8 -34 -27 -46 -56 -11 -24 -24 -46 -29 -50 -5 -3
-15 -26 -22 -52 -7 -25 -21 -62 -31 -82 -22 -43 -13 -54 41 -47 43 6 80 -25
80 -67 0 -16 7 -54 15 -86 8 -31 17 -69 19 -83 6 -28 71 -69 139 -87 l37 -10
0 690 c0 502 -3 701 -12 730 -9 29 -9 41 0 47 7 4 11 69 11 207 l0 200 -32 -3
c-28 -2 -37 4 -72 47 -22 27 -46 56 -52 64 -7 8 -13 21 -13 29 0 15 -20 27
-45 27 -10 0 -9 -12 5 -52 10 -29 24 -73 31 -98 8 -25 26 -59 41 -76 16 -17
28 -35 28 -39 0 -4 18 -50 41 -102 22 -53 39 -102 37 -110 -4 -19 -121 -27
-198 -13 -205 35 -263 42 -286 30 -28 -16 -37 -47 -17 -59 15 -8 18 -20 27
-97 5 -53 29 -73 39 -34 3 12 14 20 29 21 23 1 23 1 -2 8 -22 6 -23 8 -7 14
11 4 22 5 26 3 4 -3 12 8 19 23 11 24 18 28 52 27 25 0 40 -5 40 -13 0 -17 12
-16 90 3 63 17 118 15 148 -5 16 -10 23 -78 10 -103 -6 -14 -5 -16 7 -12 10 4
15 0 15 -12 0 -11 3 -29 6 -42 6 -20 4 -22 -17 -17 -13 3 -94 7 -179 9 -85 3
-184 8 -220 11 -61 7 -66 6 -89 -19 -32 -34 -54 -33 -84 5 -19 24 -23 38 -17
58 4 14 12 25 19 23 6 -1 11 4 11 12 0 8 6 16 14 19 19 7 36 69 36 129 0 56
-7 78 -26 78 -8 0 -14 5 -14 11 0 5 -4 8 -9 5 -5 -4 -17 -3 -26 0 -13 5 -14 8
-3 15 10 7 9 9 -5 9 -16 0 -16 2 -2 29 18 36 21 78 7 113 -10 24 -8 31 13 52
21 21 26 22 36 10 8 -10 15 -12 23 -4 14 14 -21 39 -56 40 -18 0 -33 9 -44 25
-9 14 -22 25 -29 25 -7 0 -23 19 -34 43 -25 51 -22 148 4 177 11 12 14 26 10
39 -4 15 3 35 24 67 33 49 40 84 16 84 -26 0 -100 185 -85 210 5 8 36 12 85
11 43 0 88 2 101 5 25 6 34 34 12 35 -30 1 -79 9 -158 24 -47 10 -101 20 -120
22 -19 3 -41 10 -48 16 -19 15 -102 -32 -102 -59 0 -12 -7 -27 -15 -34 -21
-18 -19 -77 4 -96 16 -14 17 -21 8 -53 -6 -20 -18 -41 -27 -48 -13 -10 -12
-15 13 -40 37 -39 34 -65 -9 -101 -35 -29 -39 -52 -8 -52 8 0 19 -12 24 -26
12 -32 -14 -96 -35 -88 -23 9 -54 -67 -60 -145 -3 -41 -1 -73 5 -76 27 -17 -4
-115 -36 -115 -43 0 -57 103 -29 211 9 33 13 64 10 69 -11 18 -75 12 -82 -7
-9 -23 -29 -43 -42 -43 -14 0 -14 16 4 72 16 55 10 86 -30 146 -42 63 -24 102
29 61 36 -28 56 -70 59 -124 1 -25 7 -45 13 -45 5 0 23 14 39 30 19 19 39 30
57 30 23 0 28 4 28 25 0 22 -2 24 -25 13 -60 -27 -102 57 -53 109 l22 24 -28
22 c-23 18 -26 27 -21 50 4 15 21 41 37 57 30 30 30 50 1 50 -9 0 -27 10 -40
22 -13 12 -23 16 -23 9 0 -7 -4 -9 -10 -6 -5 3 -10 14 -10 24 0 10 -14 24 -34
34 l-35 16 20 -34 20 -34 -21 -11 c-15 -8 -25 -8 -34 -1 -6 5 -32 11 -56 11
-25 1 -57 4 -72 7 -37 6 -37 33 0 33 34 0 52 16 52 46 0 17 -6 22 -20 21 -11
-1 -20 -8 -20 -17 0 -27 -17 -43 -36 -35 -11 4 -40 7 -66 6 -25 -2 -57 3 -70
10 -12 7 -29 15 -37 18 -7 4 -21 24 -29 46 -9 22 -23 46 -31 52 -14 11 -14 15
6 30 14 11 26 37 33 68 5 28 14 67 19 89 6 26 6 46 -2 63 -16 36 12 55 72 47
100 -12 111 -12 111 0 0 7 -14 22 -31 35 l-30 23 26 26 27 27 19 -23 c23 -30
82 -42 77 -17 -2 10 6 22 17 29 11 6 26 19 33 29 15 19 52 23 52 5 0 -6 8 -4
19 6 17 16 20 16 35 1 20 -21 20 -32 0 -43 -9 -5 -16 -21 -16 -36 0 -14 -4
-29 -9 -32 -5 -3 -9 -14 -9 -25 0 -27 24 -19 28 8 2 15 8 19 23 16 15 -4 18
-2 13 11 -3 9 0 23 7 32 11 13 15 11 32 -15 12 -21 27 -31 43 -31 25 0 34 25
12 32 -29 10 8 27 71 34 38 3 75 10 82 15 21 13 -8 59 -54 83 -37 19 -51 56
-27 71 6 3 10 19 10 36 0 23 -4 29 -21 29 -12 0 -23 -8 -26 -20 -3 -11 -11
-20 -18 -20 -7 0 -15 -9 -18 -20 -3 -11 -11 -20 -17 -20 -17 0 -4 97 16 128
18 27 11 77 -12 86 -8 3 -22 -3 -31 -14 -21 -25 -43 -26 -44 -2 0 9 -3 42 -5
73 -4 53 -2 58 34 100 50 59 72 110 72 169 0 44 -3 50 -20 50 -23 0 -80 53
-80 74 0 7 -16 24 -35 37 -19 13 -39 36 -44 50 -11 33 -38 59 -59 59 -14 -1
-13 -4 6 -19 24 -21 29 -59 11 -109 -8 -25 -7 -35 6 -56 10 -14 27 -26 39 -26
51 0 66 -11 66 -46 0 -19 -4 -34 -9 -34 -25 0 -89 -54 -94 -80 -5 -25 -33 -47
-44 -36 -3 2 3 20 12 40 20 42 13 72 -20 80 -14 4 -25 11 -25 16 0 21 -39 10
-42 -12 -2 -12 -8 -23 -13 -25 -12 -4 -37 56 -29 68 11 19 -20 7 -61 -22 -50
-36 -73 -33 -81 10 -4 20 -14 31 -29 35 -28 7 -44 69 -24 93 7 8 14 35 14 59
2 44 26 84 50 84 18 0 35 66 21 84 -14 20 -122 77 -138 74 -17 -4 -27 65 -14
97 8 18 24 31 51 40 l39 14 36 -39 c41 -45 61 -53 36 -15 -23 34 -21 71 4 78
26 7 25 18 -5 51 -31 33 -53 31 -75 -9 -13 -23 -24 -31 -53 -33 -26 -2 -37 -8
-39 -23 -3 -17 -5 -18 -29 -5 -16 8 -32 10 -40 5 -23 -15 -79 -10 -86 6 -3 9
-13 15 -22 14 -30 -3 -38 1 -81 41 -44 40 -91 53 -106 28z m-4 -293 c34 -18
36 -29 14 -73 -17 -35 -38 -40 -72 -16 -26 18 -27 34 -7 74 18 34 25 36 65 15z
m292 -39 c45 -19 60 -38 50 -62 -16 -39 -54 -94 -65 -94 -39 0 -87 15 -91 27
-7 16 11 54 30 65 6 5 10 16 7 26 -2 11 3 26 12 36 20 19 15 19 57 2z m100
-135 c-2 -18 -13 -33 -28 -39 -22 -11 -23 -10 -14 14 10 25 31 53 41 54 3 0 4
-13 1 -29z m-640 -76 c-4 -42 -12 -58 -19 -37 -3 6 -11 12 -18 12 -12 0 -106
-67 -148 -105 -22 -20 -47 -13 -47 14 0 10 -7 21 -15 25 -17 6 -21 36 -4 36
13 0 178 70 204 87 35 23 50 12 47 -32z m393 -45 c-3 -5 -13 -10 -21 -10 -8 0
-14 5 -14 10 0 6 9 10 21 10 11 0 17 -4 14 -10z m-285 -75 c26 -32 -18 -71
-48 -42 -15 15 -14 18 4 36 23 24 28 25 44 6z m294 -60 c4 -16 11 -22 21 -19
8 4 27 3 41 0 25 -7 26 -9 19 -59 -10 -73 -20 -79 -60 -34 -20 24 -41 37 -52
36 -28 -5 -43 9 -43 41 0 45 10 60 40 60 21 0 29 -6 34 -25z m273 -20 c-3 -18
1 -25 19 -29 13 -4 35 -22 49 -41 25 -32 27 -40 26 -144 -1 -64 3 -112 9 -116
5 -3 10 -15 10 -26 0 -11 7 -19 16 -19 13 0 14 -3 5 -13 -6 -8 -8 -17 -5 -20
4 -4 -5 -11 -20 -16 -27 -11 -56 -5 -56 10 0 5 -11 9 -24 9 -44 0 -56 10 -56
46 0 21 -5 34 -13 34 -7 0 -23 9 -35 20 -20 19 -22 19 -23 3 0 -16 -1 -15 -8
2 -11 26 6 36 35 23 43 -20 73 -2 100 58 27 62 21 94 -19 94 -34 0 -44 11 -51
61 -5 35 -3 49 9 59 8 7 15 19 15 27 0 8 5 11 11 7 6 -3 9 -17 6 -29z m-133
-37 c-3 -5 -12 -4 -20 3 -7 6 -11 15 -8 21 3 5 12 4 20 -3 7 -6 11 -15 8 -21z
m-108 -199 c10 -17 -13 -36 -27 -22 -12 12 -4 33 11 33 5 0 12 -5 16 -11z m83
-110 c1 -19 -6 -60 -15 -90 -16 -51 -17 -53 -27 -29 -10 24 -10 24 -17 -13 -9
-47 -14 -52 -34 -31 -12 12 -14 20 -7 27 6 6 11 30 11 53 0 60 15 95 36 87 11
-4 15 -2 11 4 -4 6 0 16 8 23 8 7 15 20 16 29 1 31 18 -22 18 -60z m648 -36
c-3 -10 -5 -2 -5 17 0 19 2 27 5 18 2 -10 2 -26 0 -35z m-717 -173 c0 -5 -4
-10 -10 -10 -5 0 -10 5 -10 10 0 6 5 10 10 10 6 0 10 -4 10 -10z m-207 -77
c-3 -7 -8 -13 -12 -13 -16 0 -19 13 -8 31 12 20 29 6 20 -18z m27 -92 c0 -11
-5 -23 -11 -27 -14 -8 -29 14 -22 33 8 20 33 16 33 -6z m188 -14 c20 -24 24
-63 8 -80 -9 -9 -12 -18 -7 -21 16 -10 23 -95 10 -131 -11 -30 -11 -37 5 -54
14 -15 17 -30 13 -56 -6 -37 -6 -38 43 -49 14 -3 34 -13 45 -21 18 -15 18 -16
-23 -53 -31 -28 -39 -41 -32 -52 17 -26 11 -50 -14 -60 -16 -6 -26 -18 -28
-37 -4 -35 -49 -63 -75 -47 -25 16 -31 52 -21 125 6 44 5 79 -3 110 -11 42
-10 51 9 88 24 45 28 76 12 86 -26 16 -30 43 -10 68 24 30 26 69 4 102 -15 23
-14 26 11 60 30 38 37 41 53 22z m-268 -78 c0 -18 7 -37 17 -44 13 -10 14 -16
7 -26 -6 -8 -14 -26 -18 -41 -9 -38 -28 -35 -24 3 2 22 -2 35 -14 43 -24 15
-32 2 -33 -52 0 -46 1 -47 35 -52 35 -5 35 -6 32 -50 -2 -25 -7 -49 -12 -54
-5 -5 4 -22 21 -40 17 -17 37 -44 45 -59 14 -26 13 -30 -7 -59 -17 -23 -22
-43 -20 -73 3 -49 -19 -76 -44 -55 -20 17 -19 32 6 64 12 15 19 30 15 33 -3 4
-6 1 -6 -5 0 -7 -13 -9 -35 -5 -30 5 -35 3 -41 -21 -7 -29 -27 -36 -23 -8 5
29 -11 61 -32 67 -33 11 -43 53 -22 97 10 21 21 38 26 38 4 0 7 12 7 26 0 15
13 41 31 61 22 25 27 39 20 46 -6 6 -11 19 -11 28 0 9 -7 22 -15 29 -8 7 -15
27 -15 45 0 28 3 32 19 28 15 -4 23 3 35 31 20 48 56 51 56 5z m552 -375 c11
-23 10 -28 -7 -40 -17 -12 -50 -11 -65 3 -3 3 5 13 18 23 12 10 22 23 22 29 0
21 20 11 32 -15z m785 -32 c23 -15 32 -56 18 -89 -7 -17 -18 -34 -24 -37 -8
-5 -8 -13 -1 -27 17 -31 15 -88 -3 -106 -13 -13 -23 -15 -44 -7 -35 12 -42 53
-17 100 18 33 18 34 -1 48 -25 18 -25 78 0 106 18 20 50 26 72 12z m-819 -77
c9 -16 20 -32 23 -35 13 -12 17 -40 6 -47 -7 -4 -28 -8 -47 -8 -26 0 -42 8
-62 30 -32 35 -33 43 -12 73 23 33 70 27 92 -13z m287 -75 c4 -16 11 -32 16
-35 12 -8 11 -52 -2 -60 -6 -4 -13 2 -16 13 -3 13 -15 22 -31 24 -35 4 -40 33
-11 64 29 31 36 30 44 -6z m-850 -26 c0 -12 -8 -20 -22 -22 -25 -4 -31 16 -11
36 17 17 33 10 33 -14z m965 12 c0 -3 -4 -8 -10 -11 -5 -3 -10 -1 -10 4 0 6 5
11 10 11 6 0 10 -2 10 -4z m-422 -32 c34 -23 27 -83 -10 -104 -27 -14 -29 -14
-53 12 -31 34 -32 72 -3 92 28 20 38 20 66 0z m-512 -60 c3 -13 2 -29 -2 -36
-5 -7 -9 -29 -9 -48 0 -33 -2 -35 -35 -35 -32 0 -35 3 -38 30 -2 18 -14 39
-30 52 -24 20 -25 24 -12 37 8 8 28 22 44 30 35 18 74 4 82 -30z m118 13 c12
-19 3 -32 -19 -24 -17 7 -21 51 -3 45 6 -2 16 -12 22 -21z m-598 -18 c3 -6 0
-18 -9 -26 -18 -18 -37 -9 -37 18 0 21 34 27 46 8z m1031 -21 c-3 -8 -6 -5 -6
6 -1 11 2 17 5 13 3 -3 4 -12 1 -19z m-699 -42 c-2 -15 -11 -22 -31 -24 -34
-4 -48 23 -22 42 26 19 57 8 53 -18z m1486 1 c7 -17 5 -39 -3 -64 -13 -40 -12
-54 10 -160 11 -54 11 -64 -4 -86 -26 -39 -55 -41 -78 -4 -24 39 -19 98 13
169 18 41 20 51 8 72 -8 15 -10 38 -6 59 10 53 44 61 60 14z m-1260 -3 c9 -3
14 -10 11 -14 -6 -10 -45 -1 -45 11 0 10 12 11 34 3z m-414 -13 c0 -12 -21
-19 -37 -13 -22 8 -14 22 12 22 14 0 25 -4 25 -9z m840 -2 c31 -11 32 -14 26
-51 -6 -36 -4 -40 28 -59 18 -11 45 -37 60 -59 14 -21 34 -41 46 -45 13 -4 20
-15 20 -31 0 -40 -48 -32 -95 16 -27 28 -48 40 -67 40 -23 0 -28 -5 -34 -36
-5 -26 -2 -45 10 -64 23 -40 20 -57 -16 -74 -17 -9 -33 -16 -34 -16 -2 0 -16
18 -30 40 -22 33 -25 45 -17 63 54 113 49 201 -12 229 -31 14 -33 30 -2 23 15
-4 31 1 46 14 28 24 28 24 71 10z m-220 -19 c0 -5 -5 -10 -11 -10 -5 0 -7 5
-4 10 3 6 8 10 11 10 2 0 4 -4 4 -10z m-395 -60 c7 -23 17 -25 45 -8 15 10 23
9 40 -7 11 -10 23 -15 27 -12 3 4 15 0 25 -10 15 -13 23 -14 44 -5 33 16 44
15 44 -2 0 -8 7 -27 16 -43 12 -20 15 -40 10 -64 -8 -46 -39 -62 -81 -44 -18
7 -53 10 -87 7 -63 -5 -73 5 -43 44 21 28 18 42 -14 58 -44 23 -76 106 -41
106 5 0 12 -9 15 -20z m765 6 l32 -13 -23 -17 c-35 -24 -49 -20 -49 14 0 35
-2 34 40 16z m-1050 -40 c0 -6 3 -22 7 -34 5 -21 3 -23 -18 -20 -24 3 -37 34
-25 64 6 16 36 8 36 -10z m1537 -14 c15 -9 32 -84 33 -139 0 -30 -7 -50 -23
-69 -28 -33 -48 -28 -69 15 -14 29 -13 38 5 104 11 40 21 78 23 85 4 14 14 15
31 4z m-787 -27 c0 -8 5 -15 10 -15 6 0 10 -21 10 -46 0 -27 4 -43 10 -39 6 4
7 -6 3 -27 -7 -39 -13 -49 -13 -22 0 17 -6 19 -45 16 -43 -4 -45 -3 -47 24 -2
55 4 89 19 107 20 21 53 23 53 2z m-486 -38 c-8 -21 -40 -22 -48 -2 -3 8 2 22
11 30 14 14 18 14 30 2 7 -7 11 -21 7 -30z m-170 11 c-4 -13 -12 -26 -18 -30
-14 -9 -52 -10 -43 -1 4 3 2 12 -4 19 -17 20 -1 34 37 34 32 0 35 -2 28 -22z
m1026 12 c0 -5 -7 -10 -15 -10 -8 0 -15 5 -15 10 0 6 7 10 15 10 8 0 15 -4 15
-10z m-564 -108 c-19 -19 -21 -5 -4 35 11 28 12 28 16 4 2 -13 -3 -31 -12 -39z
m-406 -75 c0 -8 -3 -17 -7 -20 -9 -9 -34 13 -27 24 8 14 34 11 34 -4z m-140
-16 c13 -24 3 -52 -16 -44 -16 6 -20 63 -4 63 5 0 14 -9 20 -19z m1128 7 c9
-9 8 -16 -7 -32 -29 -31 -29 -48 -1 -56 30 -7 37 -35 15 -60 -13 -14 -14 -23
-6 -38 6 -11 16 -22 22 -24 6 -2 9 -17 6 -33 -4 -27 -5 -28 -11 -9 -4 11 -24
28 -44 38 -42 19 -112 103 -112 135 0 11 -9 26 -19 33 -25 18 -13 40 23 44 17
2 24 -1 20 -8 -5 -8 -1 -9 12 -3 16 6 65 20 85 24 3 1 10 -4 17 -11z m-652
-37 c-9 -10 -16 -25 -16 -35 0 -24 -41 -38 -59 -20 -26 24 -3 68 39 75 45 7
55 1 36 -20z m-540 -48 c-10 -10 -19 5 -10 18 6 11 8 11 12 0 2 -7 1 -15 -2
-18z m152 -128 c0 -32 -12 -39 -32 -19 -20 20 -21 35 -1 28 8 -4 15 -1 15 5 0
6 4 11 9 11 5 0 9 -11 9 -25z m322 -137 c0 -13 -8 -18 -29 -18 -35 0 -50 18
-29 34 8 6 13 17 10 25 -3 10 3 8 21 -5 15 -10 27 -27 27 -36z m-378 -85 c24
-22 24 -53 -1 -53 -11 0 -27 7 -35 16 -38 38 -4 74 36 37z m291 -108 c4 -8 2
-17 -3 -20 -6 -4 -10 3 -10 14 0 25 6 27 13 6z m1668 -109 c5 3 9 -8 9 -24 0
-17 -6 -32 -15 -36 -12 -4 -15 3 -14 37 0 23 3 36 6 29 2 -6 9 -10 14 -6z
m204 -6 c3 -5 1 -10 -4 -10 -6 0 -11 5 -11 10 0 6 2 10 4 10 3 0 8 -4 11 -10z
m202 -76 c-3 -3 -12 -4 -19 -1 -8 3 -5 6 6 6 11 1 17 -2 13 -5z m-2194 -129
c-3 -9 -8 -14 -10 -11 -3 3 -2 9 2 15 9 16 15 13 8 -4z m1957 -65 c0 -5 -2
-10 -4 -10 -3 0 -8 5 -11 10 -3 6 -1 10 4 10 6 0 11 -4 11 -10z"/>
<path d="M6647 6303 c-3 -5 -2 -15 2 -22 5 -7 11 -9 14 -4 3 5 2 15 -2 22 -5
7 -11 9 -14 4z"/>
<path d="M71 8271 c-9 -6 -10 -11 -2 -15 6 -4 11 -3 11 3 0 5 8 12 18 14 12 3
13 5 2 6 -8 0 -21 -3 -29 -8z"/>
<path d="M140 8270 c-12 -8 -11 -10 7 -10 12 0 25 5 28 10 8 13 -15 13 -35 0z"/>
<path d="M226 8255 c-3 -9 0 -15 9 -15 16 0 20 16 6 24 -5 3 -11 -1 -15 -9z"/>
<path d="M100 8240 c0 -5 6 -10 14 -10 8 0 18 5 21 10 3 6 -3 10 -14 10 -12 0
-21 -4 -21 -10z"/>
<path d="M288 8233 c7 -3 16 -2 19 1 4 3 -2 6 -13 5 -11 0 -14 -3 -6 -6z"/>
<path d="M3790 8225 c-7 -8 -17 -12 -24 -9 -6 3 16 -19 49 -49 33 -30 61 -54
63 -52 7 6 -27 61 -52 84 -14 13 -23 28 -20 32 9 15 -3 10 -16 -6z m41 -42
c13 -16 12 -17 -3 -4 -10 7 -18 15 -18 17 0 8 8 3 21 -13z"/>
<path d="M3 8160 c0 -36 2 -50 4 -32 2 17 2 47 0 65 -2 17 -4 3 -4 -33z"/>
<path d="M252 8208 c6 -18 28 -21 28 -4 0 9 -7 16 -16 16 -9 0 -14 -5 -12 -12z"/>
<path d="M155 8182 c6 -21 4 -23 -17 -17 -16 4 -19 4 -9 -3 12 -8 11 -11 -5
-15 -10 -2 -7 -3 9 -1 15 2 27 -1 27 -6 0 -6 -7 -10 -15 -10 -8 0 -15 -4 -15
-10 0 -5 9 -10 20 -10 16 0 20 7 20 33 0 17 -5 39 -11 47 -8 12 -9 10 -4 -8z"/>
<path d="M6180 8150 c20 -13 43 -13 35 0 -3 6 -16 10 -28 10 -18 0 -19 -2 -7
-10z"/>
<path d="M185 8120 c-3 -5 -1 -10 4 -10 6 0 11 5 11 10 0 6 -2 10 -4 10 -3 0
-8 -4 -11 -10z"/>
<path d="M2480 8118 c0 -4 15 -8 33 -8 20 0 27 -3 19 -8 -16 -11 205 -4 239 7
14 5 49 5 79 0 54 -8 70 -6 56 9 -11 10 -426 11 -426 0z"/>
<path d="M5300 8040 c0 -8 27 -27 40 -28 3 -1 12 -3 20 -6 8 -2 32 -10 52 -16
37 -11 38 -12 32 -51 -6 -32 -4 -39 10 -39 10 0 26 5 37 10 13 8 25 7 39 0 28
-15 27 7 -1 37 -17 18 -19 25 -10 37 9 11 2 18 -39 40 -39 20 -64 26 -115 26
-36 0 -65 -4 -65 -10z"/>
<path d="M7965 7995 c-27 -8 -54 -14 -59 -15 -6 0 -5 -5 2 -12 12 -12 87 -16
114 -6 11 4 15 14 11 27 -6 24 -3 24 -68 6z"/>
<path d="M7580 7983 c0 -9 27 -12 98 -12 73 1 91 3 72 10 -14 6 -33 8 -42 5
-10 -2 -18 -1 -18 2 0 4 -25 7 -55 7 -37 0 -55 -4 -55 -12z"/>
<path d="M8094 7986 c-4 -10 -2 -22 3 -27 6 -6 102 -13 227 -15 211 -5 216 -5
216 15 0 11 -8 22 -17 25 -10 2 -109 8 -220 12 -185 6 -203 5 -209 -10z"/>
<path d="M7285 7870 c-6 -10 42 -46 51 -37 8 8 -4 25 -26 37 -12 6 -21 7 -25
0z"/>
<path d="M1291 7683 c-13 -47 -14 -95 -2 -73 10 18 24 110 17 110 -3 0 -10
-17 -15 -37z"/>
<path d="M1212 7666 c-7 -27 -11 -51 -8 -54 9 -8 27 50 24 77 -2 21 -6 16 -16
-23z"/>
<path d="M2478 7653 c-29 -5 -37 -18 -15 -25 20 -8 142 -13 297 -13 118 0 145
3 145 14 0 12 -31 15 -165 17 -91 2 -181 5 -200 7 -19 2 -47 2 -62 0z"/>
<path d="M3000 7619 c0 -25 2 -26 65 -27 46 -1 69 3 80 14 27 27 17 32 -65 36
l-80 3 0 -26z"/>
<path d="M6110 7555 c-10 -13 -9 -15 9 -15 12 0 21 6 21 15 0 8 -4 15 -9 15
-5 0 -14 -7 -21 -15z"/>
<path d="M7507 7489 c-21 -12 -22 -23 -1 -43 13 -13 44 -16 179 -16 90 0 166
4 169 8 6 11 -5 27 -25 35 -9 3 -79 9 -155 12 -77 4 -141 9 -144 10 -3 2 -13
-1 -23 -6z"/>
<path d="M8070 7460 c-16 -30 -5 -37 72 -43 37 -3 75 -10 86 -16 12 -6 59 -7
133 -1 64 4 122 8 130 8 39 -2 49 3 49 25 l0 24 -207 7 c-115 4 -218 9 -230
12 -15 4 -25 0 -33 -16z"/>
<path d="M7987 7446 c-6 -15 1 -26 15 -26 4 0 8 9 8 20 0 23 -15 27 -23 6z"/>
<path d="M6082 7438 c-17 -17 -15 -83 3 -98 8 -7 15 -29 15 -49 l0 -36 23 25
c13 14 32 38 41 53 16 23 16 27 3 27 -9 0 -23 7 -32 16 -15 15 -15 18 2 36 15
17 15 21 3 28 -21 13 -44 12 -58 -2z"/>
<path d="M6132 7118 c-18 -18 -15 -23 13 -24 18 -2 25 3 25 17 0 21 -20 25
-38 7z"/>
<path d="M7560 7119 c0 -5 5 -7 10 -4 6 3 10 8 10 11 0 2 -4 4 -10 4 -5 0 -10
-5 -10 -11z"/>
<path d="M1110 7110 c-13 -8 -13 -8 -4 -175 7 -133 14 -165 38 -165 25 0 37
28 44 97 8 74 29 88 24 15 -4 -40 -2 -43 30 -56 33 -15 63 -50 54 -65 -3 -4
19 -33 49 -64 64 -68 95 -74 139 -28 19 20 46 34 78 40 86 19 124 14 189 -24
83 -48 106 -46 163 15 25 27 46 52 46 56 0 3 -11 19 -25 36 -28 33 -33 79 -10
98 18 15 20 70 3 92 -7 9 -37 37 -66 62 -62 54 -99 60 -130 21 -26 -33 -43
-32 -70 4 -36 50 -132 52 -132 4 0 -8 -13 -34 -29 -58 -16 -24 -32 -54 -36
-67 -12 -37 -25 -48 -59 -48 -22 0 -40 8 -56 25 -29 31 -37 31 -70 0 -24 -23
-28 -24 -40 -10 -8 10 -12 34 -10 63 2 26 4 67 4 91 l1 44 -57 2 c-32 1 -62
-2 -68 -5z m520 -139 c22 -42 -14 -68 -62 -44 -26 13 -37 41 -21 56 15 16 72
7 83 -12z m-238 -158 c28 -25 22 -43 -12 -43 -34 0 -49 22 -30 45 16 19 19 19
42 -2z m94 -29 c17 -12 21 -20 14 -29 -5 -6 -7 -14 -4 -18 3 -3 -3 -10 -13
-15 -14 -8 -25 -6 -43 9 -16 12 -21 22 -14 26 6 5 13 16 17 26 8 21 11 21 43
1z"/>
<path d="M7595 7110 c3 -5 8 -10 11 -10 2 0 4 5 4 10 0 6 -5 10 -11 10 -5 0
-7 -4 -4 -10z"/>
<path d="M6230 7009 c0 -5 5 -7 10 -4 6 3 10 8 10 11 0 2 -4 4 -10 4 -5 0 -10
-5 -10 -11z"/>
<path d="M7655 6961 c-17 -19 -20 -47 -6 -55 4 -3 62 -8 127 -11 66 -3 143 -8
172 -10 49 -4 52 -2 52 20 0 26 -4 27 -165 45 -49 6 -107 14 -127 19 -30 7
-40 5 -53 -8z"/>
<path d="M7211 6809 c-26 -25 -26 -24 20 -33 32 -6 37 -3 47 19 16 35 16 35
-16 35 -16 0 -38 -9 -51 -21z"/>
<path d="M5836 6778 c-19 -27 -21 -68 -3 -68 21 0 57 44 57 68 0 29 -34 29
-54 0z"/>
<path d="M0 3387 l0 -3387 190 0 190 0 0 43 c0 23 -7 204 -15 402 -8 198 -17
477 -20 620 -3 143 -11 346 -16 450 -6 105 -13 258 -15 340 -2 83 -9 177 -15
211 -6 34 -10 70 -9 80 5 43 1 57 -14 45 -7 -6 -11 -21 -9 -34 3 -14 -3 -29
-16 -41 -21 -19 -21 -19 -22 5 0 13 -2 33 -5 44 -7 35 -25 238 -26 308 -1 37
-4 67 -7 67 -4 0 -6 26 -6 58 0 31 -4 116 -9 187 -12 175 -13 198 -20 365 -3
80 -8 188 -11 240 -3 52 -8 140 -10 195 -3 55 -7 138 -10 185 -11 194 -26 533
-35 800 -6 157 -17 449 -25 650 -8 201 -19 480 -25 620 -5 140 -12 311 -15
380 -2 69 -8 220 -11 335 -4 116 -8 212 -10 214 -2 2 -4 -1520 -4 -3382z"/>
<path d="M5932 6741 c-15 -9 -28 -131 -13 -131 6 0 11 -5 11 -11 0 -6 -7 -8
-16 -5 -13 5 -15 2 -11 -16 4 -12 1 -28 -5 -35 -14 -17 -39 -17 -32 0 3 8 -3
20 -12 28 -16 13 -16 10 -9 -46 4 -33 11 -63 17 -66 16 -10 142 -19 150 -11 4
4 10 26 14 50 6 37 4 42 -10 36 -9 -3 -16 -1 -16 5 0 6 6 11 13 12 6 0 3 4 -8
9 -17 7 -17 9 -2 9 13 1 17 10 17 37 0 20 7 51 16 70 16 33 16 36 -2 49 -10 7
-22 12 -25 9 -3 -2 -20 0 -36 5 -17 5 -35 6 -41 2z"/>
<path d="M1105 6700 c-3 -5 1 -31 9 -57 8 -26 18 -92 21 -145 4 -54 10 -98 15
-98 4 0 11 39 14 88 12 152 11 189 -3 206 -15 18 -46 21 -56 6z"/>
<path d="M7341 6655 c-1 -5 -6 -30 -10 -54 -5 -25 -5 -54 -1 -65 6 -17 9 -12
15 25 6 37 2 125 -4 94z"/>
<path d="M1577 6626 c-3 -8 0 -22 7 -32 13 -17 14 -16 20 4 11 34 -15 60 -27
28z"/>
<path d="M7876 6625 c-11 -8 -18 -16 -15 -19 16 -14 53 -26 80 -26 27 0 30 2
19 15 -7 8 -9 15 -4 15 4 0 -1 7 -12 15 -24 18 -44 18 -68 0z"/>
<path d="M7277 6623 c-2 -5 -1 -19 4 -33 7 -23 7 -23 8 8 1 31 -3 40 -12 25z"/>
<path d="M6958 6602 c-3 -11 3 -30 13 -43 l19 -24 -1 25 c0 14 -6 33 -13 43
-13 17 -14 17 -18 -1z"/>
<path d="M1725 6600 c3 -5 8 -10 11 -10 2 0 4 5 4 10 0 6 -5 10 -11 10 -5 0
-7 -4 -4 -10z"/>
<path d="M7256 6535 c-20 -15 -20 -15 0 -30 28 -21 34 -18 34 15 0 33 -6 36
-34 15z"/>
<path d="M1685 6470 c3 -5 8 -10 11 -10 2 0 4 5 4 10 0 6 -5 10 -11 10 -5 0
-7 -4 -4 -10z"/>
<path d="M6121 6408 c-10 -29 -2 -98 11 -98 6 0 8 14 6 30 -3 17 -1 33 4 36
12 7 10 54 -2 54 -6 0 -14 -10 -19 -22z"/>
<path d="M8122 6368 c6 -18 69 -28 93 -15 19 11 18 12 -10 18 -51 11 -87 10
-83 -3z"/>
<path d="M7930 6155 c-10 -12 -10 -15 4 -15 9 0 16 7 16 15 0 8 -2 15 -4 15
-2 0 -9 -7 -16 -15z"/>
<path d="M2530 5963 c-6 -15 -15 -36 -20 -45 -6 -10 -10 -26 -10 -36 0 -38
-131 -377 -198 -512 l-47 -95 -220 -5 c-121 -4 -220 -7 -221 -8 0 -1 0 -93 1
-204 2 -161 6 -217 20 -268 21 -74 34 -89 52 -57 7 12 12 16 13 8 0 -10 18
-12 85 -8 47 3 89 9 95 12 5 3 10 2 10 -4 0 -6 12 -9 27 -8 25 2 28 -2 35 -43
3 -25 11 -115 17 -200 6 -85 19 -216 30 -290 11 -74 24 -173 30 -220 5 -47 18
-143 27 -213 11 -78 14 -131 8 -136 -5 -5 -348 -12 -764 -15 -754 -6 -932 -10
-950 -21 -16 -10 -10 -133 12 -235 11 -52 26 -127 33 -166 8 -39 19 -91 26
-115 6 -24 14 -57 15 -72 2 -16 8 -37 14 -47 5 -10 10 -28 10 -39 0 -10 5 -21
11 -23 8 -3 14 -62 18 -207 1 -20 3 -21 16 -11 8 7 15 18 15 24 0 13 82 21
150 14 12 -1 18 -8 16 -15 -7 -18 -2 -16 37 10 19 12 42 27 52 32 15 9 13 16
-19 74 -60 105 -43 202 41 237 l36 15 -31 19 c-17 11 -41 21 -54 22 -31 5 -48
16 -48 34 0 8 4 13 9 9 5 -3 12 -1 15 4 3 4 32 11 65 15 54 6 61 10 80 41 14
24 31 37 59 44 25 7 53 27 80 56 37 41 39 47 30 73 -13 33 -2 102 15 102 7 0
22 -6 33 -14 32 -22 204 -9 204 15 0 5 4 9 10 9 10 0 7 -43 -9 -120 -6 -31
-20 -54 -46 -78 -30 -28 -34 -36 -24 -49 13 -15 46 -14 157 3 38 6 42 4 42
-15 0 -47 38 -12 47 43 6 40 -9 66 -37 66 -22 0 -46 28 -34 39 5 5 42 12 82
16 60 6 72 5 72 -8 0 -8 -7 -20 -15 -27 -20 -16 -19 -59 1 -67 8 -3 48 4 87
16 40 11 87 21 105 21 30 0 33 2 26 23 -4 12 -7 44 -7 70 1 40 -3 51 -23 63
-21 14 -29 14 -77 0 -80 -23 -147 -24 -163 -1 -8 10 -14 21 -14 25 0 24 179
48 265 36 60 -10 89 -38 110 -109 9 -30 25 -63 35 -72 23 -21 25 -43 8 -80
-10 -21 -8 -32 11 -70 12 -25 21 -54 19 -66 -3 -24 4 -29 75 -54 27 -10 76
-39 109 -66 34 -27 65 -49 70 -49 4 0 8 10 8 22 0 14 3 19 10 12 14 -14 40
-104 34 -119 -3 -7 -1 -16 5 -20 6 -3 11 -19 11 -35 0 -16 5 -32 11 -35 6 -4
9 -22 8 -40 -2 -18 2 -39 7 -46 6 -8 14 -30 18 -49 7 -36 38 -117 80 -210 21
-46 25 -51 25 -27 1 41 34 35 73 -14 18 -23 54 -65 81 -94 68 -75 60 -108 -16
-68 -18 9 -47 20 -65 24 -33 7 -33 7 -18 -16 15 -22 13 -36 -28 -197 -25 -95
-51 -189 -59 -208 -10 -22 -16 -78 -19 -152 -3 -106 -2 -115 14 -107 28 15 31
11 25 -38 l-5 -48 13 40 c8 22 14 50 14 63 1 14 5 20 12 17 6 -4 9 0 7 10 -4
23 30 29 49 9 8 -8 12 -14 8 -14 -3 0 0 -10 7 -23 7 -12 15 -42 19 -67 6 -45
6 -45 8 -7 0 20 6 37 11 37 7 0 7 7 -1 21 -7 14 -7 19 -1 15 7 -4 13 9 17 31
3 21 8 48 11 60 3 16 0 23 -11 23 -8 0 -15 9 -15 19 0 11 -7 27 -16 36 -13 12
-13 19 -4 30 7 9 9 26 5 45 -9 40 9 39 23 -2 11 -32 11 -32 7 12 -2 25 -2 37
1 28 3 -10 12 -18 21 -18 10 0 14 -6 10 -20 -3 -11 0 -20 6 -20 8 0 8 -3 -1
-8 -7 -5 -10 -15 -8 -23 3 -8 7 -25 10 -39 7 -39 25 -80 35 -80 26 0 36 -69
36 -248 0 -100 3 -182 7 -182 8 0 18 63 22 148 1 34 6 65 9 68 8 8 27 -40 27
-68 0 -12 24 -74 53 -137 40 -88 53 -110 55 -91 2 14 8 30 13 36 6 7 0 15 -16
22 -29 13 -43 56 -25 77 10 12 10 15 -2 15 -8 0 -24 21 -37 47 -19 39 -20 49
-9 58 7 5 13 17 13 25 0 20 -28 80 -37 80 -10 0 -20 57 -19 117 0 58 -8 77
-52 127 -19 21 -30 27 -35 19 -5 -8 -13 -9 -22 -3 -8 6 -10 10 -5 10 12 0 14
44 3 56 -5 4 -8 16 -8 27 0 16 -3 17 -15 7 -13 -11 -15 -8 -15 18 0 16 7 35
15 42 8 7 15 20 15 29 1 20 29 55 54 64 10 4 16 13 13 21 -6 16 25 47 64 63
18 8 40 8 65 3 33 -8 44 -6 67 11 40 29 65 32 72 8 4 -11 11 -17 16 -14 5 4 9
1 9 -6 0 -20 18 3 22 28 5 35 109 161 129 156 10 -3 22 3 28 16 9 16 9 21 -1
21 -25 0 -84 -25 -112 -47 -16 -13 -34 -23 -40 -23 -6 0 -4 5 4 11 16 11 20
12 -65 -10 -22 -6 -86 -10 -142 -10 l-102 0 -43 39 c-24 22 -50 42 -58 45 -8
3 -20 15 -25 27 -6 13 -17 22 -24 20 -7 -1 -10 2 -6 8 3 5 -5 25 -19 43 -15
19 -26 39 -26 45 0 18 85 -17 198 -81 123 -70 170 -89 196 -81 11 4 43 25 70
47 28 22 70 48 94 58 23 10 42 23 42 28 0 5 32 42 71 80 71 70 76 86 18 55
-40 -20 -48 -12 -12 12 15 10 36 28 46 40 10 13 24 21 32 18 8 -3 32 12 57 36
46 44 46 44 -32 24 l-25 -7 19 22 c20 22 20 22 0 15 -10 -4 -37 -22 -60 -40
-45 -36 -64 -41 -111 -30 -39 9 -140 114 -148 154 -9 43 -37 93 -80 146 -68
83 -95 108 -110 102 -8 -3 -17 0 -21 6 -4 7 -9 7 -14 -1 -4 -8 -14 -6 -32 8
-14 11 -28 18 -32 14 -3 -3 3 -13 15 -21 11 -8 18 -20 15 -28 -3 -8 4 -23 16
-33 26 -25 18 -52 -12 -44 -20 5 -21 4 -8 -16 11 -19 11 -24 -4 -35 -22 -16
-23 -26 -4 -26 8 0 22 -7 31 -16 27 -27 85 -64 100 -64 8 0 17 5 20 10 4 6 12
7 23 1 21 -12 62 -45 45 -36 -24 12 -13 -10 11 -25 14 -8 48 -37 75 -63 53
-51 64 -83 36 -110 -14 -14 -53 -12 -65 3 -10 13 -87 38 -185 59 -154 34 -207
51 -247 78 -33 22 -40 24 -55 12 -14 -12 -15 -12 -9 0 5 8 3 17 -5 22 -21 13
-29 11 -29 -7 0 -13 -3 -14 -13 -5 -8 6 -16 8 -20 5 -8 -8 10 -64 27 -83 7 -9
17 -26 20 -38 7 -23 -4 -28 -54 -25 -8 0 -18 -5 -23 -11 -5 -7 -6 -3 -2 10 3
12 1 32 -5 43 -7 14 -8 26 -2 33 14 17 21 67 11 73 -18 10 -9 25 11 19 19 -6
20 -3 14 22 -4 15 -10 35 -14 43 -4 8 -5 21 -3 28 3 7 -3 12 -14 12 -14 0 -15
2 -4 9 9 6 11 20 6 49 -4 23 -10 41 -13 41 -4 -1 -14 -1 -22 0 -13 1 -13 2 0
11 12 8 13 11 1 19 -11 7 -11 10 0 15 11 5 11 7 2 12 -7 3 -13 14 -13 24 0 10
-5 31 -12 47 -6 15 -12 35 -14 43 -1 8 -7 34 -13 57 -9 33 -9 47 1 63 7 11 16
20 20 20 5 0 8 6 8 14 0 17 77 89 121 112 23 12 57 18 106 18 39 0 69 4 67 8
-3 5 -10 6 -15 3 -5 -4 -9 1 -9 9 0 8 -5 18 -12 22 -6 4 -8 3 -5 -3 4 -6 0
-14 -9 -17 -8 -3 -12 -2 -9 4 7 11 -38 24 -57 17 -8 -3 -6 -6 5 -6 10 -1 17
-7 14 -13 -2 -7 -14 -11 -27 -10 -33 5 -90 -7 -90 -19 0 -16 -62 -69 -81 -69
-9 0 -21 -11 -27 -25 -6 -14 -17 -25 -23 -25 -8 0 -8 4 1 15 15 18 -1 20 -18
3 -18 -18 -15 -26 11 -30 20 -3 20 -5 -10 -21 -18 -10 -33 -23 -34 -30 -2 -28
-8 -50 -18 -60 -6 -6 -11 -30 -11 -53 0 -31 -4 -42 -15 -40 -24 4 -28 13 -31
75 -1 33 -5 65 -10 72 -4 7 -3 9 4 5 13 -8 32 23 32 51 0 11 7 28 15 39 15 19
15 19 8 -1 -10 -32 5 -12 22 28 l16 38 -28 -18 c-31 -20 -31 -19 28 67 20 31
56 69 79 85 23 16 37 31 31 33 -6 2 -24 -6 -41 -18 -26 -19 -32 -20 -45 -7 -8
8 -11 18 -7 22 7 7 10 95 3 95 -9 0 -77 -45 -83 -55 -4 -7 -17 -23 -28 -36
-21 -23 -21 -23 -10 -1 6 12 8 27 5 32 -3 6 -3 15 1 21 11 19 13 250 3 292 -6
22 -12 81 -13 132 -2 51 -7 99 -12 106 -4 7 -9 38 -10 68 -3 54 -14 184 -20
226 -1 11 -5 67 -8 125 -4 58 -9 115 -11 128 -3 13 -3 27 1 33 3 5 7 54 9 107
2 53 6 114 10 136 11 80 53 243 74 290 11 27 21 55 21 62 0 8 9 22 20 31 11
10 20 21 20 26 0 5 11 18 25 29 14 11 25 24 25 30 0 14 57 68 71 68 7 0 27
-11 46 -26 26 -20 33 -32 33 -60 0 -21 4 -33 10 -29 6 4 10 -10 10 -34 0 -22
-4 -42 -9 -45 -20 -13 15 -146 38 -146 5 0 13 -15 16 -32 4 -18 11 -38 16 -43
4 -6 8 -20 8 -30 0 -18 11 -81 26 -143 9 -38 23 -16 29 46 12 114 28 198 51
267 23 68 38 207 35 332 -1 49 0 51 30 58 33 7 36 31 4 28 -21 -2 -68 60 -61
80 2 7 -2 17 -9 24 -7 7 -14 16 -16 21 -4 11 -102 90 -162 131 l-46 32 -10
-28z m-537 -1220 c-7 -2 -21 -2 -30 0 -10 3 -4 5 12 5 17 0 24 -2 18 -5z m372
-1103 c4 -16 11 -32 16 -35 13 -9 11 -47 -3 -43 -13 5 -40 108 -27 108 4 0 10
-13 14 -30z m-45 -110 c0 -5 -7 -7 -15 -4 -8 4 -15 8 -15 10 0 2 7 4 15 4 8 0
15 -4 15 -10z m-47 -34 c7 -18 -3 -59 -17 -68 -8 -5 -8 -13 1 -26 6 -11 15
-37 19 -58 6 -34 5 -37 -8 -27 -20 17 -41 114 -32 157 6 36 27 48 37 22z
m-1172 -27 c5 -8 7 -29 4 -46 -7 -37 0 -41 27 -16 13 12 22 13 29 6 18 -18
-12 -65 -54 -88 l-37 -20 -44 23 c-40 22 -46 22 -68 9 -12 -9 -47 -20 -75 -25
-45 -8 -55 -7 -68 8 -14 16 -14 21 4 61 24 56 52 79 95 79 19 0 39 7 47 16 17
21 126 15 140 -7z m-392 -69 c22 0 53 -43 58 -79 4 -32 1 -42 -17 -58 -12 -10
-28 -24 -35 -30 -16 -15 -44 -16 -64 -4 -16 11 -29 92 -21 135 5 29 33 48 58
40 8 -2 17 -4 21 -4z m1811 -625 c0 -14 -4 -25 -9 -25 -5 0 -11 11 -13 25 -4
17 -1 25 8 25 8 0 14 -11 14 -25z m376 -146 c79 -24 144 -55 144 -68 0 -5 8
-7 19 -4 10 2 35 0 56 -6 29 -8 44 -7 66 5 75 38 -8 -62 -94 -115 l-37 -23
-43 20 c-23 11 -46 22 -52 23 -24 9 -151 84 -157 93 -4 6 -8 7 -8 3 0 -4 -15
9 -32 30 -18 21 -36 40 -41 41 -4 2 -5 8 -1 13 10 16 110 10 180 -12z m-272
-4 c8 -8 19 -15 25 -15 6 0 11 -5 11 -10 0 -12 -35 4 -45 20 -4 6 -10 8 -15 5
-5 -3 -11 -1 -15 5 -10 16 22 12 39 -5z m416 -404 c0 -29 -21 -39 -58 -29 -37
10 -38 29 -1 39 44 12 59 10 59 -10z"/>
<path d="M8407 5919 c-9 -6 -15 -15 -11 -20 3 -6 6 -26 6 -45 0 -38 10 -50 27
-30 33 40 16 117 -22 95z"/>
<path d="M3668 5672 c-16 -2 -28 -8 -28 -13 0 -21 -38 -46 -66 -44 -16 2 -23
1 -16 -2 20 -8 14 -23 -13 -33 -14 -5 -25 -14 -25 -20 0 -6 -5 -8 -12 -4 -8 5
-9 2 -5 -9 3 -10 2 -17 -3 -17 -13 0 10 -50 24 -51 6 -1 40 -3 75 -5 35 -2 70
-9 77 -15 10 -8 14 -8 14 0 0 6 13 11 30 11 30 0 33 -5 42 -65 2 -14 12 -20
37 -22 19 -2 40 -8 47 -14 18 -15 45 -4 38 16 -3 8 -11 12 -17 8 -6 -4 -8 0
-4 10 3 10 2 17 -3 17 -10 0 17 57 31 66 15 9 61 -5 54 -16 -3 -6 3 -10 14
-10 19 0 41 -26 41 -49 0 -6 -6 -11 -14 -11 -8 0 -14 -8 -14 -17 0 -10 -3 -26
-7 -37 -7 -16 -6 -17 13 -7 12 7 22 8 22 4 0 -4 5 -2 11 4 6 6 18 9 25 6 8 -3
20 0 28 6 24 21 25 -1 0 -56 -27 -63 -31 -80 -8 -43 14 24 15 22 9 -29 -7 -59
-14 -79 -30 -80 -5 0 -11 -7 -13 -15 -2 -11 2 -14 11 -10 8 3 18 1 22 -5 9
-16 35 13 35 39 0 12 4 19 9 16 5 -3 12 1 15 10 3 8 11 12 17 8 7 -4 9 -3 5 4
-3 6 -1 14 5 18 6 3 15 1 19 -6 6 -9 10 -6 15 10 4 14 3 25 -5 30 -9 5 -9 9
-1 14 6 4 11 15 11 25 0 24 37 66 58 66 10 0 17 7 17 15 0 9 8 14 18 12 9 -2
17 1 17 6 0 13 48 24 72 17 11 -4 17 -13 14 -21 -3 -8 -1 -14 4 -14 6 0 10 -7
10 -15 0 -8 4 -15 9 -15 4 0 20 -11 34 -24 22 -21 24 -28 17 -60 -7 -33 -5
-37 19 -49 18 -9 25 -20 24 -35 -2 -15 2 -20 12 -16 8 4 15 1 15 -5 0 -6 7
-11 15 -11 8 0 15 -5 15 -11 0 -6 -7 -8 -16 -5 -8 3 -12 2 -9 -4 8 -13 35 -13
35 1 0 5 4 8 9 5 12 -8 20 -55 10 -62 -5 -3 -9 4 -9 15 0 12 -4 21 -10 21 -12
0 -12 -3 -1 -33 7 -19 5 -27 -10 -38 -23 -16 -25 -29 -4 -29 9 0 15 -10 15
-26 0 -14 -4 -23 -9 -20 -5 3 -19 -11 -32 -32 -31 -50 -32 -64 -7 -56 14 4 19
2 16 -7 -2 -7 -13 -14 -23 -15 -11 -2 -21 -8 -23 -13 -2 -6 -11 -11 -20 -12
-11 0 -12 -2 -4 -6 6 -2 10 -8 7 -13 -3 -4 5 -6 17 -2 l22 5 -22 -23 c-12 -13
-22 -29 -22 -36 0 -16 -60 -67 -69 -59 -3 4 4 15 16 25 l22 18 -24 0 c-14 0
-25 -6 -25 -13 0 -14 -28 -29 -49 -26 -7 1 -10 -2 -6 -9 4 -6 -2 -19 -13 -28
-17 -15 -17 -19 -5 -30 11 -11 17 -11 28 -2 8 6 19 9 25 5 6 -4 9 -1 8 6 -2 6
3 14 10 16 8 3 10 -1 5 -13 -5 -14 -2 -13 15 4 12 12 22 25 22 30 1 16 47 40
61 31 8 -5 9 -9 2 -9 -6 0 -15 -13 -21 -28 -8 -23 -7 -29 5 -29 8 0 12 6 8 16
-5 12 -3 13 6 4 13 -13 4 -33 -17 -33 -20 0 -18 -16 4 -25 16 -7 15 -8 -3 -15
-11 -4 -20 -13 -20 -20 0 -7 -6 -15 -14 -18 -8 -3 -11 0 -7 7 5 7 1 9 -10 4
-16 -6 -16 -7 1 -19 12 -9 15 -19 9 -36 -4 -13 -7 -26 -6 -30 1 -3 -5 -9 -13
-12 -12 -4 -14 0 -9 22 4 23 4 24 -6 9 -7 -10 -9 -31 -5 -50 6 -26 5 -30 -6
-19 -7 6 -22 11 -33 11 -17 -1 -18 -2 -3 -6 9 -2 17 -9 17 -14 0 -6 -9 -7 -20
-4 -11 4 -20 2 -20 -4 0 -6 4 -11 9 -11 5 0 7 -9 4 -20 -5 -18 -7 -18 -28 -4
-22 14 -25 14 -45 -6 -11 -11 -18 -25 -15 -30 3 -5 -7 -13 -22 -16 -33 -9 -51
-29 -49 -58 1 -14 7 -20 19 -18 15 2 15 0 5 -23 -7 -16 -17 -24 -26 -20 -9 3
-12 0 -9 -9 4 -10 -5 -18 -29 -26 -31 -11 -33 -13 -18 -24 16 -12 15 -14 -9
-20 -30 -7 -35 -21 -12 -30 8 -3 15 -11 15 -18 0 -9 -3 -9 -10 2 -5 8 -12 11
-15 8 -15 -14 8 -29 34 -23 21 5 24 4 14 -6 -7 -7 -13 -21 -13 -32 0 -18 -1
-18 -17 -1 -17 17 -18 17 -21 -4 -2 -12 -17 -35 -33 -51 -16 -16 -29 -36 -29
-44 0 -8 -7 -17 -15 -21 -21 -8 -19 -28 3 -24 9 2 20 14 23 28 6 24 7 24 8 -5
1 -23 4 -26 11 -15 8 12 10 12 16 -3 3 -9 13 -17 21 -17 13 0 13 3 3 15 -10
12 -9 15 4 15 14 0 15 4 6 21 -11 19 -10 20 10 9 12 -7 30 -10 40 -7 11 3 22
-3 29 -17 15 -30 18 -55 6 -56 -5 0 -11 8 -13 19 -2 11 -10 25 -18 31 -17 15
-18 10 -14 -68 1 -32 -3 -59 -12 -70 -12 -15 -11 -16 5 -3 10 8 17 27 17 46 0
27 4 32 22 31 15 -1 27 8 36 27 7 15 17 27 23 27 5 0 9 6 9 13 0 6 16 29 35
50 19 20 39 45 44 55 6 9 11 11 11 5 0 -7 -8 -21 -17 -31 -10 -9 -24 -30 -31
-46 -21 -47 -178 -280 -243 -361 -59 -73 -229 -265 -298 -337 -25 -27 -38 -34
-44 -25 -6 8 -7 7 -4 -5 3 -9 -1 -24 -9 -35 -14 -17 -15 -16 -11 9 3 17 0 25
-8 22 -7 -3 -11 -16 -10 -28 3 -24 -8 -28 -32 -13 -7 5 -13 4 -13 -1 0 -5 10
-14 23 -20 21 -11 21 -11 -4 -6 -24 5 -26 3 -22 -20 3 -14 1 -26 -4 -26 -5 0
-19 -9 -31 -20 -18 -17 -22 -18 -22 -5 0 20 -16 19 -24 -1 -9 -22 -8 -26 6
-18 7 5 8 3 3 -7 -21 -35 -52 -59 -77 -59 -22 0 -26 -4 -23 -21 3 -15 0 -19
-10 -15 -8 3 -17 1 -20 -4 -4 -6 -15 -10 -26 -10 -10 0 -19 -4 -19 -8 0 -5
-11 -14 -24 -22 -21 -11 -23 -16 -13 -37 7 -16 16 -22 26 -18 9 4 42 11 74 16
54 9 62 14 116 72 261 281 380 420 461 541 37 56 114 171 171 256 110 163 215
335 221 360 2 8 11 23 21 34 10 12 24 33 32 48 8 16 22 41 31 58 8 16 19 32
24 35 21 13 114 181 139 253 16 42 54 140 86 217 31 77 83 212 115 300 54 147
136 362 189 493 l21 52 -95 0 -95 0 0 35 c0 19 -2 35 -4 35 -2 0 -40 7 -83 15
-96 18 -158 18 -293 0 -134 -18 -206 -19 -298 -1 l-74 14 -17 -42 c-28 -63
-40 -69 -87 -44 -21 11 -54 24 -72 29 -39 8 -88 -3 -84 -20 1 -7 -2 -10 -7 -6
-14 8 -80 13 -79 6 2 -21 -4 -31 -18 -31 -8 0 -12 4 -9 10 3 5 0 7 -8 5 -7 -3
-18 -18 -23 -33 l-10 -27 0 32 c-1 22 5 34 16 38 9 3 22 17 28 31 15 31 15 37
2 29 -5 -3 -15 -3 -21 1 -8 5 -8 9 1 14 15 9 -15 17 -52 12z m67 -152 c3 -6
-1 -7 -9 -4 -18 7 -21 14 -7 14 6 0 13 -4 16 -10z m715 -1076 c0 -8 -5 -12
-10 -9 -6 4 -8 11 -5 16 9 14 15 11 15 -7z m-50 -64 c0 -5 -4 -10 -10 -10 -5
0 -10 5 -10 10 0 6 5 10 10 10 6 0 10 -4 10 -10z"/>
<path d="M1370 5640 c-107 -3 -196 -7 -197 -8 -18 -14 40 -17 279 -14 420 3
450 4 438 16 -12 12 -243 14 -520 6z"/>
<path d="M3937 5366 c-4 -10 -5 -21 -2 -24 9 -9 17 6 13 25 -3 17 -4 17 -11
-1z"/>
<path d="M1422 5263 l-123 -4 3 -222 c2 -122 7 -228 11 -235 5 -6 6 -16 2 -21
-3 -5 0 -21 6 -34 11 -25 39 -31 66 -14 6 4 22 7 35 7 71 -1 93 2 99 11 4 8
20 8 52 1 29 -6 49 -6 55 0 6 6 12 6 16 -1 4 -6 18 -11 31 -11 24 0 33 16 34
60 10 359 10 455 -2 462 -6 4 -46 7 -87 6 -41 -1 -130 -4 -198 -5z"/>
<path d="M612 5252 c-21 -3 -22 -7 -17 -45 4 -23 8 -116 9 -207 2 -166 16
-246 43 -263 7 -5 11 -12 8 -18 -3 -5 1 -6 9 -3 11 4 16 0 16 -14 0 -12 4 -23
9 -26 17 -11 30 -92 36 -226 4 -74 11 -147 17 -162 13 -34 46 -38 52 -5 12 61
26 173 36 277 14 153 16 160 50 160 16 0 30 5 32 12 4 12 51 13 181 5 55 -3
73 -9 95 -29 15 -14 35 -25 44 -25 15 0 16 12 13 106 -2 58 -6 142 -10 186 -4
44 -10 125 -14 180 l-6 100 -290 1 c-159 0 -300 -2 -313 -4z"/>
<path d="M445 5210 c-3 -5 -1 -10 4 -10 6 0 11 5 11 10 0 6 -2 10 -4 10 -3 0
-8 -4 -11 -10z"/>
<path d="M3892 5152 c-11 -11 -28 -22 -38 -24 -9 -1 -19 -9 -20 -16 -1 -7 0
-8 3 -2 2 5 17 10 31 10 36 1 70 26 55 41 -8 8 -17 5 -31 -9z"/>
<path d="M3943 5126 c-3 -6 -3 -8 2 -4 4 4 13 4 19 -2 7 -5 18 -5 25 -1 9 6 5
10 -13 13 -15 3 -29 0 -33 -6z"/>
<path d="M4490 5110 c-9 -6 -10 -10 -3 -10 6 0 15 5 18 10 8 12 4 12 -15 0z"/>
<path d="M4000 5101 c0 -5 -3 -16 -6 -24 -3 -9 3 -16 18 -20 30 -8 42 13 18
35 -21 20 -30 23 -30 9z"/>
<path d="M3602 5078 c-17 -17 -15 -28 4 -28 8 0 13 4 10 9 -4 5 -1 11 6 13 8
3 8 7 2 11 -6 3 -16 1 -22 -5z"/>
<path d="M3915 5040 c-22 -43 -18 -49 10 -15 26 32 31 45 15 45 -5 0 -16 -13
-25 -30z"/>
<path d="M4510 5049 c0 -6 -7 -9 -14 -6 -10 4 -13 1 -9 -9 6 -17 15 -18 31 -2
15 15 16 28 2 28 -5 0 -10 -5 -10 -11z"/>
<path d="M3530 5031 c0 -12 6 -21 15 -21 8 0 15 4 15 9 0 5 -7 14 -15 21 -13
10 -15 9 -15 -9z"/>
<path d="M3940 5025 c-14 -16 -10 -18 14 -9 9 3 16 10 16 15 0 14 -16 11 -30
-6z"/>
<path d="M3980 5031 c1 -17 20 -33 34 -28 25 10 19 33 -9 33 -14 0 -25 -2 -25
-5z"/>
<path d="M3787 4865 c3 -8 9 -12 14 -9 12 7 11 11 -5 17 -10 4 -13 1 -9 -8z"/>
<path d="M3810 4821 c13 -11 28 -17 33 -14 11 6 -23 32 -43 32 -10 1 -7 -6 10
-18z"/>
<path d="M3726 4818 c3 -4 -1 -8 -8 -8 -7 -1 2 -7 20 -15 17 -8 32 -20 32 -26
0 -16 13 -3 16 16 1 8 -2 15 -8 15 -6 0 -8 6 -5 13 3 8 -5 12 -24 12 -15 1
-25 -3 -23 -7z"/>
<path d="M3855 4780 c-3 -5 -1 -10 4 -10 6 0 11 5 11 10 0 6 -2 10 -4 10 -3 0
-8 -4 -11 -10z"/>
<path d="M3785 4740 c4 -6 11 -8 16 -5 14 9 11 15 -7 15 -8 0 -12 -5 -9 -10z"/>
<path d="M3770 4670 c0 -5 5 -10 10 -10 6 0 10 5 10 10 0 6 -4 10 -10 10 -5 0
-10 -4 -10 -10z"/>
<path d="M5265 4657 c-4 -8 -5 -39 -3 -68 3 -48 6 -54 26 -57 38 -6 72 23 72
62 0 37 -21 61 -62 71 -20 5 -29 3 -33 -8z"/>
<path d="M3800 4636 c7 -7 14 -6 21 1 9 9 7 12 -9 10 -14 -1 -18 -5 -12 -11z"/>
<path d="M2678 4569 c-3 -24 -2 -48 2 -52 12 -13 22 61 12 80 -7 12 -11 6 -14
-28z"/>
<path d="M5645 4555 c-25 -58 -59 -82 -96 -70 -14 5 -29 -5 -54 -31 -19 -20
-34 -38 -33 -39 4 -4 77 -13 164 -21 l71 -7 6 63 c4 35 7 85 7 111 0 42 -3 49
-20 49 -15 0 -27 -15 -45 -55z"/>
<path d="M5919 4478 c-1 -68 -3 -185 -4 -260 -2 -109 0 -140 12 -149 9 -9 17
-9 24 -2 7 7 19 7 37 -2 15 -7 55 -16 88 -20 l62 -7 5 39 c2 21 5 119 6 218 2
168 1 179 -14 158 -10 -14 -27 -23 -42 -23 -36 0 -93 45 -93 74 0 29 -40 90
-63 94 -15 3 -17 -9 -18 -120z"/>
<path d="M6731 4557 c-6 -9 -12 -68 -13 -148 l-3 -134 30 0 30 0 7 130 c3 72
4 138 1 148 -5 20 -36 23 -52 4z"/>
<path d="M3647 4493 c-14 -13 -7 -24 9 -15 9 5 26 8 38 5 20 -3 20 -3 1 6 -25
12 -40 13 -48 4z"/>
<path d="M3600 4454 c-6 -15 -13 -31 -16 -36 -5 -8 15 -6 79 8 15 3 32 14 37
25 12 22 8 23 -37 10 -22 -6 -32 -6 -30 1 5 24 -24 17 -33 -8z"/>
<path d="M7018 4474 c-3 -5 -7 -58 -9 -119 l-4 -110 33 -3 c25 -3 32 1 34 15
0 10 2 32 4 48 5 58 -9 127 -31 153 -12 14 -24 21 -27 16z"/>
<path d="M7690 4473 c0 -27 31 -159 50 -216 19 -57 26 -68 42 -63 10 3 26 9
37 12 13 4 20 0 24 -15 3 -12 13 -21 22 -21 12 0 15 5 9 23 -3 12 -10 27 -14
32 -4 6 -15 33 -24 61 -9 28 -28 66 -41 84 -14 19 -25 40 -25 46 0 7 -15 24
-33 38 -35 27 -47 31 -47 19z"/>
<path d="M2668 4349 c-4 -14 -8 -88 -9 -164 0 -105 3 -140 13 -146 24 -16 30
-9 23 24 -4 17 -10 95 -14 172 -4 86 -9 130 -13 114z"/>
<path d="M3515 4361 c-3 -5 0 -11 7 -14 7 -2 1 -3 -14 -1 -15 2 -35 1 -44 -3
-24 -9 3 -23 47 -23 19 0 41 -6 48 -12 11 -10 13 -10 7 0 -5 8 2 12 23 12 16
0 33 5 36 10 4 6 -9 10 -31 10 -41 0 -37 15 6 23 14 2 2 5 -27 6 -28 0 -54 -3
-58 -8z"/>
<path d="M3500 4274 c-19 -8 -25 -12 -12 -10 26 5 29 -9 5 -23 -17 -10 -16
-10 2 -10 11 -1 31 9 45 20 l25 20 -25 -7 c-22 -6 -23 -5 -11 10 16 19 16 19
-29 0z"/>
<path d="M3446 4265 c-3 -8 -1 -15 4 -15 6 0 10 7 10 15 0 8 -2 15 -4 15 -2 0
-6 -7 -10 -15z"/>
<path d="M7527 4241 c-5 -23 -3 -37 5 -42 18 -11 19 -6 10 37 l-8 39 -7 -34z"/>
<path d="M3396 4234 c-9 -8 -21 -25 -27 -37 -9 -20 -9 -20 4 -5 7 9 25 20 40
23 15 4 30 12 33 17 4 6 -2 7 -16 3 -15 -5 -20 -4 -16 4 10 16 0 13 -18 -5z"/>
<path d="M6387 4212 c-26 -58 -20 -91 10 -61 15 15 33 -19 29 -56 -4 -34 -32
-57 -45 -37 -6 11 -10 10 -15 -3 -10 -28 13 -45 60 -45 42 0 43 1 50 36 8 42
-1 173 -13 185 -4 4 -19 10 -33 14 -23 5 -28 1 -43 -33z"/>
<path d="M3337 4156 c-4 -10 1 -12 14 -9 23 6 24 9 5 16 -8 3 -17 0 -19 -7z"/>
<path d="M6710 4134 c-17 -19 -8 -115 11 -127 34 -22 49 -2 49 67 0 60 -1 64
-25 68 -14 3 -30 -1 -35 -8z"/>
<path d="M3387 3948 c19 -22 29 -23 36 -4 4 10 -4 15 -24 18 -27 4 -28 4 -12
-14z"/>
<path d="M6081 3961 c-9 -6 -12 -19 -8 -39 9 -42 -12 -67 -49 -59 -33 6 -60
-5 -51 -21 4 -5 34 -15 68 -21 58 -12 63 -11 82 7 l20 21 -23 60 c-12 34 -23
61 -24 61 0 0 -7 -4 -15 -9z"/>
<path d="M3326 3911 c-11 -4 -15 -10 -9 -14 14 -9 84 4 77 14 -6 11 -41 11
-68 0z"/>
<path d="M5474 3896 c8 -32 -8 -74 -42 -110 -38 -40 -57 -44 -121 -29 -31 7
-69 13 -84 13 -27 0 -28 -2 -25 -41 l3 -40 80 -3 c61 -2 89 -8 115 -24 20 -12
54 -28 78 -36 41 -15 44 -14 87 12 24 15 45 32 45 38 0 6 9 19 20 29 12 11 20
31 20 52 0 49 -38 80 -91 75 -3 -1 -3 13 -1 30 6 37 -17 58 -61 58 -26 0 -28
-3 -23 -24z"/>
<path d="M5654 3906 c-9 -24 21 -63 53 -67 50 -7 73 1 73 25 0 17 -9 25 -47
36 -27 8 -54 16 -61 18 -6 2 -15 -4 -18 -12z"/>
<path d="M3269 3858 c15 -20 81 -25 81 -7 0 8 -11 9 -31 5 -20 -4 -38 -1 -48
6 -14 12 -14 11 -2 -4z"/>
<path d="M3923 3832 c2 -9 9 -16 15 -14 7 1 12 -7 12 -18 0 -11 5 -20 11 -20
6 0 8 7 5 16 -3 9 -6 21 -6 29 0 7 -9 15 -21 18 -15 4 -19 1 -16 -11z"/>
<path d="M2660 3801 c0 -5 7 -14 15 -21 16 -14 18 -10 9 14 -6 17 -24 22 -24
7z"/>
<path d="M3985 3800 c-3 -5 -1 -10 4 -10 6 0 11 5 11 10 0 6 -2 10 -4 10 -3 0
-8 -4 -11 -10z"/>
<path d="M3270 3784 l-25 -15 30 6 c17 4 34 11 40 16 15 15 -17 10 -45 -7z"/>
<path d="M3886 3759 c2 -4 -2 -9 -8 -12 -7 -2 6 -4 30 -3 51 1 56 12 8 18 -19
2 -33 1 -30 -3z"/>
<path d="M2505 3735 c4 -11 10 -30 12 -43 3 -12 9 -25 13 -27 12 -7 -10 68
-22 80 -8 7 -9 4 -3 -10z"/>
<path d="M2428 3725 c-3 -4 1 -27 9 -51 8 -25 17 -44 19 -42 2 2 -2 25 -9 51
-7 27 -15 45 -19 42z"/>
<path d="M3292 3710 c0 -14 2 -19 5 -12 2 6 2 18 0 25 -3 6 -5 1 -5 -13z"/>
<path d="M3870 3689 c0 -5 5 -7 10 -4 6 3 10 8 10 11 0 2 -4 4 -10 4 -5 0 -10
-5 -10 -11z"/>
<path d="M6124 3649 c-13 -22 18 -39 60 -34 24 4 62 -1 91 -10 56 -17 131 -20
139 -6 7 11 -25 18 -129 27 -44 4 -97 13 -117 20 -24 8 -40 9 -44 3z"/>
<path d="M2575 3640 l-40 -6 50 -5 c28 -3 58 -9 68 -13 10 -5 17 -4 17 2 0 16
-52 28 -95 22z"/>
<path d="M2566 3584 c-5 -12 -1 -14 17 -9 35 11 44 25 15 25 -14 0 -29 -7 -32
-16z"/>
<path d="M2488 3578 c-19 -16 -68 -82 -68 -92 0 -14 54 35 56 50 1 9 10 24 20
35 19 22 15 25 -8 7z"/>
<path d="M2756 3563 c-11 -11 -6 -23 9 -23 8 0 15 4 15 9 0 13 -16 22 -24 14z"/>
<path d="M5196 3468 c-3 -35 -10 -135 -15 -223 -15 -243 -58 -474 -113 -605
-25 -62 -32 -96 -39 -192 -4 -64 -15 -154 -24 -200 -15 -78 -17 -162 -11 -453
1 -44 3 -152 5 -240 3 -194 9 -255 26 -255 7 0 15 7 19 15 3 8 16 15 29 15 35
0 66 69 42 94 -20 19 -9 26 28 15 41 -12 50 -11 42 1 -3 6 1 10 9 10 10 0 13
-6 9 -17 -5 -17 -4 -17 11 -2 9 9 18 25 19 37 2 27 24 36 45 20 13 -11 14 -11
8 0 -6 10 -1 11 21 6 38 -9 43 -13 43 -32 0 -10 -10 -22 -22 -27 -31 -14 -29
-37 5 -53 16 -8 31 -21 34 -29 7 -19 -16 -34 -39 -27 -14 4 -18 0 -18 -19 0
-30 9 -34 85 -31 78 3 96 24 101 119 l4 66 -38 -3 c-20 -2 -37 2 -37 7 0 6 -7
21 -14 34 -17 31 -2 46 36 36 15 -5 32 -7 36 -6 5 1 6 -3 3 -8 -3 -5 1 -11 9
-15 8 -3 15 -15 15 -26 0 -12 4 -18 11 -15 5 4 8 12 6 18 -5 15 29 64 53 77
14 8 25 4 48 -15 17 -14 39 -25 50 -25 11 0 37 -15 57 -34 32 -31 35 -38 30
-69 -4 -22 -3 -37 5 -42 15 -9 80 23 80 40 0 32 -20 65 -40 65 -22 0 -50 50
-50 88 0 10 -7 27 -15 38 -15 19 -15 18 -35 -8 -12 -15 -27 -25 -34 -22 -8 3
-26 31 -40 63 -22 49 -32 60 -66 74 -23 9 -40 22 -40 31 0 8 -8 20 -18 25 -13
7 -17 18 -14 44 3 27 -1 37 -20 49 -113 76 -152 188 -112 324 15 52 15 55 -7
93 -27 49 -17 88 29 110 32 16 44 53 21 67 -14 8 -6 95 12 139 6 17 12 39 13
50 1 11 8 21 16 23 21 4 90 -26 90 -39 0 -5 -4 -8 -8 -5 -4 2 -14 0 -22 -5
-13 -8 -12 -12 4 -24 30 -23 43 -18 48 15 3 17 1 30 -4 30 -4 0 -8 14 -8 30 0
18 -6 33 -15 36 -8 4 -15 14 -15 24 0 14 7 19 28 18 15 0 33 1 41 3 20 6 33
-47 26 -108 -5 -44 -3 -54 16 -72 29 -27 49 -27 57 2 3 12 27 65 55 117 62
119 127 178 205 185 26 3 32 0 32 -16 0 -10 5 -19 10 -19 6 0 10 5 10 10 0 6
6 10 14 10 8 0 14 -11 14 -25 0 -37 7 -40 55 -28 44 11 117 7 117 -7 0 -5 9
-6 20 -3 11 3 20 10 20 16 0 5 9 2 20 -8 11 -10 20 -13 20 -8 0 6 14 9 32 7
18 -2 35 1 40 8 6 10 8 10 8 1 0 -6 8 -12 18 -13 9 0 44 -3 77 -6 33 -2 94 -6
135 -9 41 -2 85 -10 97 -16 18 -10 26 -10 35 -1 17 17 31 15 24 -3 -3 -8 -1
-15 4 -15 6 0 10 6 10 14 0 28 54 12 93 -28 20 -22 40 -37 43 -34 7 8 24 274
24 400 0 125 5 133 82 143 58 7 91 15 86 20 -2 2 -77 13 -168 25 -91 11 -248
32 -350 47 -102 14 -221 29 -265 34 -79 9 -96 12 -265 46 -47 9 -103 17 -125
16 -38 -1 -324 35 -336 42 -10 7 -203 32 -256 34 -28 1 -66 6 -85 11 -18 6
-34 10 -35 10 -1 0 -4 -28 -7 -62z m559 -648 c3 -5 -1 -10 -9 -10 -9 0 -16 5
-16 10 0 6 4 10 9 10 6 0 13 -4 16 -10z m-255 -70 c0 -5 -4 -10 -10 -10 -5 0
-10 5 -10 10 0 6 5 10 10 10 6 0 10 -4 10 -10z m-256 -1013 c17 -26 -5 -53
-40 -49 -45 4 -54 10 -47 27 5 13 7 14 14 3 7 -10 9 -9 9 4 0 18 28 39 44 35
5 -2 14 -11 20 -20z m-180 -71 c-4 -11 0 -13 18 -9 18 4 20 3 12 -7 -7 -7 -21
-9 -34 -5 -17 5 -19 10 -9 21 15 18 20 18 13 0z m112 -172 c-5 -14 -9 -15 -19
-5 -9 9 -9 14 3 21 18 11 24 6 16 -16z m44 -8 c0 -11 -19 -15 -25 -6 -3 5 1
10 9 10 9 0 16 -2 16 -4z m190 -62 c0 -17 -22 -14 -28 4 -2 7 3 12 12 12 9 0
16 -7 16 -16z"/>
<path d="M2393 3498 c-19 -24 -24 -38 -15 -38 5 0 14 11 20 25 13 27 10 32 -5
13z"/>
<path d="M1240 3220 c0 -5 5 -10 10 -10 6 0 10 5 10 10 0 6 -4 10 -10 10 -5 0
-10 -4 -10 -10z"/>
<path d="M1800 3208 c-14 -6 -34 -13 -45 -15 -28 -5 -55 -40 -47 -61 9 -24 89
-102 105 -102 7 0 29 12 48 26 19 14 48 32 65 40 28 12 32 19 36 61 3 26 3 51
1 56 -6 11 -135 7 -163 -5z"/>
<path d="M1550 3174 c-85 -50 -92 -56 -83 -65 14 -14 113 14 129 36 15 20 19
55 7 55 -5 0 -28 -12 -53 -26z"/>
<path d="M3575 3100 c-3 -5 -1 -10 4 -10 6 0 11 5 11 10 0 6 -2 10 -4 10 -3 0
-8 -4 -11 -10z"/>
<path d="M1217 3063 c-15 -14 -6 -23 23 -23 20 0 30 5 30 15 0 15 -40 21 -53
8z"/>
<path d="M3495 3020 c-3 -5 1 -10 9 -10 9 0 16 5 16 10 0 6 -4 10 -9 10 -6 0
-13 -4 -16 -10z"/>
<path d="M3470 2989 c0 -5 5 -7 10 -4 6 3 10 8 10 11 0 2 -4 4 -10 4 -5 0 -10
-5 -10 -11z"/>
<path d="M1716 2974 c-8 -21 3 -122 14 -129 8 -5 40 66 40 88 0 8 -11 24 -24
36 -22 20 -24 21 -30 5z"/>
<path d="M2226 2894 c-8 -22 -1 -28 19 -17 14 8 14 11 2 22 -12 9 -16 8 -21
-5z"/>
<path d="M1882 2888 c-18 -18 -15 -25 14 -32 33 -9 39 -3 24 23 -12 24 -21 26
-38 9z"/>
<path d="M1880 2775 c7 -8 24 -15 39 -15 l26 1 -25 14 c-35 20 -57 20 -40 0z"/>
<path d="M1600 2689 c0 -5 5 -7 10 -4 6 3 10 8 10 11 0 2 -4 4 -10 4 -5 0 -10
-5 -10 -11z"/>
<path d="M1850 2689 c0 -5 5 -7 10 -4 6 3 10 8 10 11 0 2 -4 4 -10 4 -5 0 -10
-5 -10 -11z"/>
<path d="M1665 2629 c-22 -12 -47 -27 -55 -34 -37 -32 -238 -75 -351 -75 l-49
0 0 -41 0 -41 48 6 c26 3 92 6 147 7 111 1 153 14 261 77 65 38 76 58 58 106
-8 20 -11 20 -59 -5z"/>
<path d="M5523 2503 c-54 -22 -44 -46 49 -118 39 -30 74 -55 79 -55 5 0 9 31
9 69 0 68 -1 70 -32 86 -59 30 -72 32 -105 18z"/>
<path d="M2606 2360 c7 -28 12 -35 18 -29 2 2 -2 15 -10 29 l-15 25 7 -25z"/>
<path d="M5482 2150 c-56 -56 -50 -141 12 -180 40 -24 67 -25 106 -5 40 21 41
59 1 79 -32 17 -44 40 -35 68 3 11 3 30 0 44 -9 34 -47 31 -84 -6z"/>
<path d="M3108 2093 c-3 -27 -1 -52 4 -57 4 -6 8 -21 9 -35 1 -22 2 -20 10 9
9 38 1 130 -11 130 -5 0 -10 -21 -12 -47z"/>
<path d="M2825 2040 c-4 -6 -2 -17 4 -23 15 -15 25 -2 13 19 -7 12 -11 13 -17
4z"/>
<path d="M3097 1975 c-14 -90 -14 -95 -6 -95 13 0 21 42 17 96 l-3 49 -8 -50z"/>
<path d="M2147 1919 c8 -8 22 -8 50 -1 l38 10 -49 1 c-37 1 -47 -2 -39 -10z"/>
<path d="M2855 1910 c-3 -5 -2 -10 4 -10 5 0 13 5 16 10 3 6 2 10 -4 10 -5 0
-13 -4 -16 -10z"/>
<path d="M5775 1883 c-4 -16 -10 -47 -16 -70 -14 -64 -12 -73 15 -73 25 0 86
62 86 88 0 18 -52 82 -67 82 -7 0 -15 -12 -18 -27z"/>
<path d="M3071 1814 c0 -11 3 -14 6 -6 3 7 2 16 -1 19 -3 4 -6 -2 -5 -13z"/>
<path d="M6803 1780 c-18 -16 -33 -33 -33 -38 0 -4 24 -15 52 -24 59 -18 68
-13 68 38 0 59 -37 70 -87 24z"/>
<path d="M3060 1773 c0 -16 -2 -16 -11 -3 -9 12 -10 12 -5 -3 3 -10 6 -30 6
-44 0 -41 14 -17 16 27 1 22 0 40 -2 40 -2 0 -4 -8 -4 -17z"/>
<path d="M5960 1720 c0 -9 36 -88 45 -98 8 -10 99 -11 111 -1 25 21 15 34 -56
72 -71 38 -100 45 -100 27z"/>
<path d="M6253 1611 c-6 -3 -15 -20 -20 -37 -9 -24 -8 -38 4 -62 20 -41 41
-47 69 -21 22 21 62 105 53 113 -8 7 -97 13 -106 7z"/>
<path d="M6641 1529 c-24 -23 -39 -29 -56 -25 -32 8 -38 -5 -20 -47 21 -50 62
-80 100 -73 58 11 77 59 54 139 -12 46 -32 47 -78 6z"/>
<path d="M2488 1459 c-11 -37 -10 -45 10 -83 12 -22 22 -57 22 -76 0 -19 9
-59 20 -88 11 -29 27 -94 36 -145 18 -104 36 -142 78 -163 40 -20 42 -12 6 26
-24 25 -28 36 -19 46 6 8 8 14 3 14 -5 0 -1 5 9 11 18 10 18 12 -3 31 -29 27
-40 60 -40 117 0 52 -17 114 -30 106 -27 -16 -41 122 -20 195 14 47 13 55 -5
40 -8 -7 -15 -18 -15 -25 0 -7 -8 -15 -19 -18 -15 -4 -17 1 -15 24 5 41 -3 36
-18 -12z m35 -34 c-3 -9 -8 -14 -10 -11 -3 3 -2 9 2 15 9 16 15 13 8 -4z"/>
<path d="M2691 1484 c0 -11 3 -14 6 -6 3 7 2 16 -1 19 -3 4 -6 -2 -5 -13z"/>
<path d="M2946 1426 c3 -9 11 -16 16 -16 13 0 5 23 -10 28 -7 2 -10 -2 -6 -12z"/>
<path d="M2700 1422 c0 -7 -4 -11 -9 -8 -5 3 -11 -9 -14 -27 -3 -17 -10 -61
-16 -97 -7 -35 -10 -74 -7 -86 3 -12 9 -52 12 -90 3 -38 13 -82 22 -99 9 -16
17 -37 18 -45 1 -8 5 -35 8 -60 12 -81 28 -83 22 -2 -3 42 -1 72 5 72 5 0 9
-13 9 -28 0 -22 7 -31 33 -42 17 -7 35 -15 40 -18 4 -2 7 3 7 11 0 8 -14 27
-31 41 -26 22 -29 29 -19 42 10 11 10 20 2 37 -6 12 -16 36 -23 54 -10 22 -17
29 -25 22 -8 -7 -14 -1 -18 18 -4 16 -9 36 -13 47 -3 12 -1 16 6 12 6 -4 11
-16 11 -27 0 -10 6 -19 13 -19 9 0 18 23 25 64 14 72 15 92 5 83 -3 -4 -15 0
-25 10 -13 11 -18 31 -18 67 0 28 -5 58 -10 66 -7 11 -10 11 -10 2z"/>
<path d="M6846 1402 c-4 -10 -27 -39 -53 -65 -36 -37 -57 -49 -101 -58 -50
-12 -61 -11 -124 11 -57 19 -73 21 -89 12 -10 -7 -34 -14 -51 -17 -49 -6 -131
-41 -142 -58 -14 -22 -3 -29 26 -18 48 18 76 -22 42 -60 -15 -17 -14 -19 17
-38 18 -11 37 -17 41 -13 4 4 11 36 14 70 7 67 23 92 43 68 14 -16 6 -56 -10
-56 -6 0 -7 -4 -4 -10 3 -5 19 -10 35 -10 28 0 28 0 23 -52 -11 -117 -7 -127
43 -131 27 -2 29 0 30 37 0 32 5 41 24 48 14 5 33 17 43 26 29 26 118 52 140
40 26 -13 45 -3 58 29 14 33 31 220 23 246 -7 22 -21 22 -28 -1z"/>
<path d="M5795 1230 c-8 -13 -1 -24 14 -19 6 3 7 10 2 18 -6 10 -10 10 -16 1z"/>
<path d="M3076 1101 c-15 -6 -16 -10 -7 -15 8 -5 20 -2 29 8 17 17 9 19 -22 7z"/>
<path d="M4970 1075 c-15 -40 -15 -40 50 -37 33 2 60 7 60 10 -1 19 -30 41
-63 47 -33 7 -38 5 -47 -20z"/>
<path d="M1797 1033 c-1 -1 -259 -4 -572 -6 -314 -3 -581 -8 -594 -12 -23 -8
-23 -11 -19 -84 3 -43 10 -77 17 -79 6 -2 11 -22 11 -43 0 -22 4 -48 9 -57 10
-18 21 -252 26 -510 1 -89 5 -165 7 -167 12 -12 42 40 49 84 4 27 16 58 27 69
11 11 24 26 28 34 5 8 26 22 47 32 20 9 37 21 37 26 0 6 5 10 11 10 5 0 7 -5
3 -11 -4 -7 1 -7 16 1 19 10 25 9 44 -11 11 -13 23 -40 24 -59 2 -19 6 -37 8
-39 7 -8 64 59 64 74 0 8 11 35 25 61 14 26 25 53 25 60 0 7 19 29 42 49 51
43 45 63 -22 82 -24 7 -48 17 -53 22 -19 19 68 71 121 71 22 0 12 29 -24 70
-20 22 -41 40 -46 40 -13 0 -54 42 -61 63 -4 11 -1 20 8 23 17 7 110 -22 145
-45 29 -20 95 -27 105 -12 3 6 21 11 38 11 52 0 94 16 141 55 l44 36 4 -42 c3
-35 0 -44 -20 -58 -42 -29 -61 -50 -68 -76 -11 -46 0 -57 55 -50 38 4 53 1 71
-13 28 -23 21 -36 -33 -60 -23 -11 -56 -35 -74 -53 l-32 -34 41 -1 c43 -2 78
-29 78 -60 0 -8 4 -22 9 -32 33 -61 52 -114 46 -131 -3 -11 -1 -28 5 -38 10
-15 6 -35 -18 -103 -16 -47 -33 -93 -37 -102 -5 -14 -2 -18 13 -18 37 0 92
102 92 170 0 20 2 39 5 42 7 6 104 -9 130 -20 11 -5 32 -14 48 -21 19 -7 27
-18 27 -35 0 -39 15 -38 40 3 17 26 42 46 82 65 58 27 72 48 47 73 -6 6 -9 28
-7 49 2 31 7 39 23 39 16 0 21 8 23 40 4 45 20 68 63 85 53 23 24 92 -32 75
-19 -6 -49 9 -49 25 0 5 15 14 34 20 19 6 40 17 46 25 7 8 16 13 20 10 17 -10
18 24 2 52 -38 67 -65 103 -77 103 -7 0 -18 7 -25 15 -10 12 -9 15 7 15 11 0
35 -8 53 -17 31 -15 71 -18 215 -14 17 0 38 0 47 -2 36 -5 21 18 -24 35 -50
19 -169 92 -206 128 -18 17 -23 30 -18 51 l5 29 -170 -3 c-94 -1 -171 -3 -172
-4z m100 -367 c20 -10 29 -23 31 -42 2 -31 31 -63 50 -56 15 5 15 -18 0 -55
-6 -15 -12 -31 -12 -35 -1 -3 -4 -10 -8 -14 -11 -10 -10 -36 1 -30 4 3 16 -1
27 -8 16 -12 16 -17 6 -37 -28 -53 -39 -69 -71 -98 -29 -28 -40 -31 -94 -31
-49 0 -65 4 -84 22 -13 12 -23 27 -23 34 0 6 -6 14 -13 17 -14 5 -42 85 -33
94 3 3 18 -4 34 -16 39 -27 42 -27 42 7 0 29 -21 53 -72 85 -28 18 -39 57 -15
57 6 0 25 22 41 49 16 27 38 53 48 58 34 15 116 15 145 -1z"/>
<path d="M4940 996 c0 -18 6 -19 35 -6 11 5 15 9 8 9 -6 1 -18 4 -27 7 -11 4
-16 1 -16 -10z"/>
<path d="M2808 783 c-10 -2 -18 -9 -18 -14 0 -14 26 -11 40 6 13 15 9 16 -22
8z"/>
<path d="M2444 757 c-12 -12 -32 -29 -44 -38 -47 -31 17 -81 75 -59 73 28 94
-1 29 -39 -24 -14 -36 -30 -41 -52 -3 -19 -15 -35 -29 -41 -13 -6 -24 -17 -24
-24 0 -12 55 -29 73 -22 5 2 14 -8 21 -20 l13 -24 11 29 c20 51 49 157 57 203
3 25 9 53 11 62 4 13 -7 20 -50 32 -70 21 -77 20 -102 -7z"/>
<path d="M2663 768 c2 -7 10 -13 17 -13 7 0 15 6 18 13 2 7 -5 12 -18 12 -13
0 -20 -5 -17 -12z"/>
<path d="M4689 736 c-1 -6 -1 -66 1 -132 2 -138 0 -144 -71 -219 -27 -28 -56
-69 -65 -91 -9 -21 -32 -56 -50 -77 -19 -20 -34 -41 -34 -45 0 -16 -122 -133
-158 -152 l-37 -19 138 -1 c118 0 137 2 137 16 0 8 5 12 10 9 6 -3 10 0 10 8
0 14 47 33 57 23 3 -3 6 -16 6 -28 0 -23 1 -23 61 -15 33 4 73 12 88 16 16 5
30 5 37 -2 6 -6 41 -11 78 -13 37 -1 83 -5 102 -9 25 -5 31 -4 25 6 -5 9 -2
10 10 6 13 -5 19 -1 23 12 3 13 11 17 26 14 22 -4 22 -4 2 12 -16 13 -17 17
-6 24 10 7 10 10 1 13 -7 2 -14 17 -16 32 l-3 28 52 -7 c28 -4 57 -14 65 -21
7 -8 19 -14 25 -14 7 0 1 -9 -12 -19 l-24 -18 52 5 c44 4 55 1 76 -18 13 -12
35 -22 49 -22 15 0 26 -6 26 -13 0 -8 -8 -11 -19 -8 -10 3 -22 0 -25 -5 -4 -7
347 -11 1074 -12 l1080 -1 0 22 c0 17 -4 20 -22 16 -138 -33 -146 -30 -287
127 l-119 133 -123 17 c-114 16 -355 61 -909 171 -124 24 -288 56 -365 70
-264 48 -824 159 -927 184 -27 6 -38 6 -39 -3z m-9 -706 c0 -5 -4 -10 -10 -10
-5 0 -10 5 -10 10 0 6 5 10 10 10 6 0 10 -4 10 -10z"/>
<path d="M8515 282 c-40 -53 -45 -79 -38 -183 6 -98 6 -99 32 -99 l26 0 0 155
c0 85 0 155 0 155 0 0 -9 -13 -20 -28z"/>
<path d="M2592 165 c9 -11 18 -27 20 -35 2 -8 7 -18 11 -21 5 -4 3 -16 -4 -28
-11 -17 -11 -25 -1 -41 11 -18 10 -20 -12 -20 -14 0 -28 -4 -31 -10 -4 -6 22
-10 69 -10 44 0 76 4 76 10 0 6 -5 10 -11 10 -6 0 -4 7 5 15 17 17 47 10 40
-10 -3 -7 0 -16 7 -21 8 -5 10 -3 4 7 -7 11 -6 12 6 3 8 -6 50 -12 94 -13 l80
-1 -85 34 c-88 35 -230 107 -265 135 -19 15 -19 15 -3 -4z m58 -105 c0 -5 -2
-10 -4 -10 -3 0 -8 5 -11 10 -3 6 -1 10 4 10 6 0 11 -4 11 -10z m54 -12 c-7
-10 -34 -10 -34 0 0 4 9 8 19 8 11 0 17 -4 15 -8z"/>
<path d="M7670 80 l0 -80 226 0 225 0 -3 36 c-2 21 -10 40 -18 44 -16 8 -396
81 -417 80 -9 0 -13 -23 -13 -80z"/>
<path d="M2480 110 c-8 -26 -7 -41 2 -32 6 6 8 16 5 24 -3 7 -6 11 -7 8z"/>
<path d="M2458 43 c-30 -35 -32 -45 -8 -41 17 2 24 11 26 31 3 32 2 33 -18 10z"/>
<path d="M5280 34 c0 -8 5 -12 10 -9 6 3 10 10 10 16 0 5 -4 9 -10 9 -5 0 -10
-7 -10 -16z"/>
<path d="M2091 14 c9 -9 25 -14 35 -12 14 3 10 7 -16 16 -32 12 -34 11 -19 -4z"/>
</g>
</svg>
